<svg width="16" height="16" viewBox="0 0 16 16" fill="none" xmlns="http://www.w3.org/2000/svg">
<rect width="16" height="16" rx="8" fill="url(#paint0_linear_3178_10961)"/>
<path d="M9.50989 12.2203C9.48055 12.2203 9.45122 12.1993 9.44284 12.1699C9.38836 11.9853 9.40931 11.83 9.5057 11.7125C9.71523 11.4564 10.2139 11.4816 10.2852 11.49C10.436 11.4732 10.4486 11.469 10.524 11.448C10.6414 11.4103 10.7084 11.3179 10.7 11.2088C10.6875 11.0829 10.7294 10.9864 10.8257 10.9234C10.8509 10.9066 10.8676 10.8898 10.8676 10.873C10.8676 10.8604 10.8593 10.8437 10.8425 10.8269L10.788 10.7723L10.8467 10.7219C10.8509 10.7177 10.8593 10.7135 10.8635 10.7093C10.876 10.7009 10.8844 10.6926 10.8928 10.6842C10.9221 10.659 10.9221 10.6464 10.9221 10.6464C10.9221 10.6464 10.9179 10.6338 10.8928 10.6086C10.8593 10.5708 10.8174 10.5163 10.8257 10.4491C10.8341 10.382 10.8928 10.3358 10.9389 10.3106L10.9557 10.298C10.9976 10.2728 11.0101 10.2519 11.0101 10.2393C11.0101 10.2309 10.9976 10.2099 10.9557 10.1763C10.7671 10.0378 10.6749 9.84893 10.6958 9.63068C10.7 9.58032 10.7126 9.53415 10.7252 9.48798C10.7294 9.47119 10.7335 9.4502 10.7377 9.43342C10.7671 9.29911 10.7713 9.1648 10.7461 9.03889C10.7126 8.8752 10.6455 8.76188 10.5701 8.64016L10.5617 8.62757C10.4863 8.51425 10.3732 8.33797 10.1427 8.18267C10.1091 8.16169 10.1008 8.11552 10.1217 8.08614C10.1427 8.05256 10.1888 8.04417 10.2181 8.06515C10.4695 8.23723 10.5953 8.42191 10.6749 8.54782L10.6833 8.56041C10.7671 8.68633 10.8467 8.81644 10.8802 9.00951C10.9096 9.15221 10.9054 9.3075 10.8718 9.4586C10.8676 9.47958 10.8635 9.49637 10.8593 9.51736C10.8467 9.55933 10.8383 9.5971 10.8341 9.63488C10.8216 9.80276 10.8886 9.94547 11.0395 10.0546C11.1149 10.1092 11.1526 10.1721 11.1526 10.2351C11.1526 10.298 11.1107 10.3568 11.0353 10.4072L11.0185 10.4197C10.9766 10.4449 10.9724 10.4575 10.9724 10.4617C10.9724 10.4617 10.9766 10.4743 11.0017 10.5079C11.0898 10.6044 11.0856 10.6884 10.9892 10.7807L10.985 10.7849C11.0059 10.8227 11.0059 10.8562 11.0059 10.8814C11.0017 10.9234 10.9808 10.9822 10.9054 11.0325C10.8509 11.0703 10.8341 11.1123 10.8425 11.1878C10.8593 11.3683 10.7545 11.5194 10.5701 11.5781C10.4821 11.6075 10.457 11.6075 10.2977 11.6285H10.2893H10.281C10.1427 11.6159 9.75714 11.6243 9.61465 11.8006C9.5476 11.8803 9.53922 11.9895 9.58113 12.128C9.5937 12.1657 9.57275 12.2035 9.53503 12.2161C9.52246 12.2161 9.51827 12.2203 9.50989 12.2203Z" fill="#2E3131"/>
<path d="M6.69746 6.99018C6.65556 6.99018 6.62622 6.9566 6.62622 6.91883C6.63041 6.8097 6.60108 6.72576 6.53822 6.6754C6.4125 6.56627 6.18621 6.60405 6.18202 6.60405H6.17782C6.12754 6.60824 5.99344 6.65441 5.91801 6.68379H5.91382C5.7881 6.71737 5.67914 6.71317 5.57857 6.667C5.3858 6.59145 5.26846 6.48653 5.22236 6.35222C5.16789 6.20112 5.23913 6.07521 5.24332 6.06681C5.31037 5.9451 5.31037 5.90732 5.22655 5.85696C5.18046 5.82758 5.15112 5.77301 5.13855 5.71425C5.13017 5.6513 5.14274 5.58834 5.17627 5.54217C5.0715 5.43305 5.1176 5.31553 5.18046 5.21899C5.18465 5.2148 5.18884 5.2106 5.18884 5.2022C5.22236 5.15184 5.22236 5.13925 5.20979 5.12246L5.20141 5.11826L5.18884 5.10147C5.17208 5.07209 5.15531 5.05111 5.13436 5.03012C5.05055 4.95877 5.00445 4.87483 5.00026 4.78669C4.99607 4.68176 5.04217 4.57263 5.14693 4.46351C5.1595 4.45092 5.17208 4.43413 5.18465 4.41734C5.18884 4.40895 5.19722 4.40055 5.20141 4.39216L5.2056 4.38796C5.22236 4.36698 5.24332 4.34599 5.26008 4.325C5.30199 4.27464 5.34808 4.22427 5.40256 4.1823C5.43189 4.15712 5.45285 4.14453 5.46542 4.14033C5.46542 4.14033 5.46542 4.14033 5.46961 4.14033C5.46961 4.13613 5.4738 4.13194 5.47799 4.11934L5.48218 4.11515C5.49056 4.09416 5.49894 4.08157 5.49894 4.00602V3.90529C5.50733 3.71642 5.57857 3.56113 5.64981 3.41003C5.67495 3.35966 5.70009 3.3051 5.72105 3.25054L5.72524 3.24634C5.74619 3.20437 5.76295 3.1666 5.78391 3.12882C5.86353 2.96933 5.93477 2.81824 6.04373 2.68393C6.07725 2.64196 6.09401 2.5832 6.11077 2.52024L6.11497 2.50345C6.17363 2.30199 6.30773 2.15089 6.39574 2.05436C6.40412 2.04596 6.4125 2.03757 6.42088 2.02498C6.44602 1.9956 6.49212 1.9914 6.52146 2.02078C6.55079 2.04596 6.55498 2.09213 6.52565 2.12151C6.51726 2.12991 6.50888 2.1383 6.5005 2.15089C6.41669 2.24323 6.29935 2.37334 6.24907 2.54542L6.24068 2.55801C6.21973 2.62936 6.19878 2.70072 6.14849 2.76787C6.04792 2.89378 5.98087 3.03649 5.90543 3.18758C5.88448 3.22536 5.86772 3.26733 5.84677 3.3051C5.82581 3.35966 5.79648 3.41423 5.77553 3.46879C5.70848 3.61149 5.64143 3.7458 5.63724 3.90529V4.00183C5.63724 4.09836 5.62885 4.12774 5.6079 4.16971L5.60371 4.17391C5.58276 4.22008 5.57019 4.23686 5.53666 4.25785C5.52828 4.26205 5.51152 4.27044 5.49056 4.29143C5.44866 4.325 5.41094 4.37117 5.36904 4.41734C5.35227 4.43833 5.33132 4.45931 5.31456 4.4803C5.31037 4.48869 5.30618 4.49289 5.2978 4.50128C5.28522 4.52227 5.26846 4.53906 5.2517 4.56004C5.17627 4.63979 5.13855 4.71534 5.14274 4.77829C5.14693 4.82866 5.17208 4.87903 5.22655 4.92519C5.26427 4.95877 5.28941 4.99655 5.30618 5.03012L5.31456 5.04271C5.39837 5.14344 5.33132 5.24418 5.30199 5.28615C5.30618 5.28615 5.30199 5.29034 5.2978 5.29454C5.23494 5.39947 5.24332 5.42465 5.31037 5.47502C5.34389 5.5002 5.35646 5.52538 5.35227 5.55896C5.34808 5.60513 5.30618 5.62192 5.28941 5.63031C5.28941 5.63031 5.28522 5.63031 5.28522 5.63451C5.27684 5.6471 5.27265 5.66809 5.27684 5.69747C5.28103 5.71845 5.28941 5.73524 5.30199 5.74363C5.51152 5.87794 5.40675 6.06262 5.36485 6.14236C5.36485 6.14656 5.32294 6.22211 5.35646 6.31025C5.38999 6.39839 5.48637 6.47813 5.63724 6.53689H5.64143C5.70848 6.57047 5.78391 6.57047 5.8761 6.54529C5.90963 6.53269 6.08563 6.46974 6.16525 6.45715C6.19878 6.45295 6.46279 6.41098 6.63041 6.55788C6.7268 6.63762 6.77289 6.75934 6.7687 6.91463C6.7687 6.9608 6.73518 6.99018 6.69746 6.99018Z" fill="#2E3131"/>
<path d="M6.46724 14C6.42952 14 6.396 13.9665 6.396 13.9287C6.396 12.6234 7.31374 11.7965 7.98424 11.1963C8.03034 11.1544 8.07224 11.1166 8.11415 11.0788C8.2231 10.9781 8.34882 10.8648 8.44521 10.7682C8.51226 10.7011 8.5835 10.6339 8.65893 10.5626L8.70083 10.5206C9.33362 9.91622 10.1173 9.16074 10.1173 8.00653C10.1173 6.75159 9.22047 5.93735 8.56674 5.34136L8.52483 5.30358C8.41587 5.20285 8.31111 5.10632 8.21891 5.01398C8.15605 4.95102 8.08901 4.88807 8.01776 4.82091L7.90881 4.71598C7.27184 4.1116 6.40857 3.28476 6.396 2.07599C6.396 2.03822 6.42533 2.00464 6.46724 2.00464C6.50495 2.00464 6.53848 2.03402 6.53848 2.07599C6.54686 3.226 7.38498 4.02765 8.001 4.61525L8.11415 4.72018C8.18539 4.78733 8.25244 4.85449 8.3153 4.91744C8.4033 5.00558 8.50807 5.10212 8.61702 5.20285L8.65893 5.24062C9.33362 5.8534 10.2556 6.68863 10.2556 8.01073C10.2556 9.2237 9.44676 10.0002 8.79722 10.6255L8.75531 10.6675C8.67988 10.7389 8.61283 10.806 8.54578 10.8732C8.44521 10.9739 8.31949 11.0872 8.21053 11.188C8.16863 11.2257 8.12672 11.2635 8.08062 11.3055C7.43108 11.8889 6.53848 12.6905 6.53848 13.9329C6.53848 13.9665 6.50495 14 6.46724 14Z" fill="#2E3131"/>
<path d="M10.1838 13.9996C10.1461 13.9996 10.1125 13.966 10.1125 13.9282C10.1125 12.6985 9.15289 11.8255 8.51592 11.2505L8.44468 11.1833C8.31058 11.0616 8.20162 10.9609 8.10943 10.8685C8.03819 10.7972 7.96276 10.7258 7.88733 10.6503L7.85799 10.6209C7.20845 9.99553 6.39966 9.21906 6.39966 8.00609C6.39966 6.69239 7.32159 5.85296 7.99628 5.24018L8.034 5.20661C8.14715 5.10587 8.25191 5.00514 8.3441 4.917C8.40277 4.85824 8.46144 4.79948 8.52849 4.73653L8.59135 4.67357C8.62488 4.63999 8.6584 4.61061 8.69193 4.57704C9.29537 4.00203 10.1167 3.21717 10.1167 2.07135C10.1167 2.03358 10.1503 2 10.188 2C10.2257 2 10.2592 2.03358 10.2592 2.07135C10.2592 3.28012 9.40852 4.09017 8.78831 4.68196C8.75479 4.71554 8.72126 4.74492 8.68774 4.7785L8.62488 4.84146C8.56202 4.90441 8.49916 4.96317 8.44468 5.01773C8.35249 5.11007 8.24353 5.2108 8.13038 5.31573L8.09686 5.34931C7.43893 5.9453 6.54633 6.75954 6.54633 8.01448C6.54633 9.16869 7.32998 9.91998 7.96276 10.5286L7.99209 10.5579C8.07171 10.6335 8.14715 10.7048 8.21839 10.7762C8.31058 10.8685 8.41954 10.9651 8.54944 11.0868L8.62069 11.1539C9.27442 11.7457 10.2634 12.6439 10.2634 13.9366C10.255 13.966 10.2215 13.9996 10.1838 13.9996Z" fill="#2E3131"/>
<path d="M7.51045 9.72266H9.17832C9.21603 9.72266 9.24956 9.75623 9.24956 9.79401C9.24956 9.83178 9.21603 9.86536 9.17832 9.86536H7.51045C7.47273 9.86536 7.43921 9.83178 7.43921 9.79401C7.43921 9.75623 7.47273 9.72266 7.51045 9.72266Z" fill="#2E3131"/>
<path d="M7.51045 6.15942H9.17832C9.21603 6.15942 9.24956 6.193 9.24956 6.23077C9.24956 6.26855 9.21603 6.30213 9.17832 6.30213H7.51045C7.47273 6.30213 7.43921 6.26855 7.43921 6.23077C7.43921 6.193 7.47273 6.15942 7.51045 6.15942Z" fill="#2E3131"/>
<path d="M7.23433 8.83301H9.45535C9.49307 8.83301 9.52659 8.86658 9.52659 8.90436C9.52659 8.94213 9.49307 8.97571 9.45535 8.97571H7.23433C7.19661 8.97571 7.16309 8.94213 7.16309 8.90436C7.16309 8.86658 7.19242 8.83301 7.23433 8.83301Z" fill="#2E3131"/>
<path d="M7.23433 7.04956H9.45535C9.49307 7.04956 9.52659 7.08314 9.52659 7.12091C9.52659 7.15869 9.49307 7.19226 9.45535 7.19226H7.23433C7.19661 7.19226 7.16309 7.15869 7.16309 7.12091C7.16309 7.08314 7.19242 7.04956 7.23433 7.04956Z" fill="#2E3131"/>
<path d="M6.95308 7.94287H9.73146C9.76917 7.94287 9.8027 7.97645 9.8027 8.01422C9.8027 8.052 9.76917 8.08557 9.73146 8.08557H6.95308C6.91536 8.08557 6.88184 8.052 6.88184 8.01422C6.88184 7.97645 6.91536 7.94287 6.95308 7.94287Z" fill="#2E3131"/>
<path d="M9.73146 2.1427H6.95308C6.91536 2.1427 6.88184 2.10913 6.88184 2.07135C6.88184 2.03358 6.91536 2 6.95308 2H9.73146C9.76917 2 9.8027 2.03358 9.8027 2.07135C9.8027 2.10913 9.77336 2.1427 9.73146 2.1427Z" fill="#2E3131"/>
<path d="M9.17832 12.2201H7.51045C7.47273 12.2201 7.43921 12.1865 7.43921 12.1487C7.43921 12.111 7.47273 12.0774 7.51045 12.0774H9.17832C9.21603 12.0774 9.24956 12.111 9.24956 12.1487C9.24956 12.1865 9.21603 12.2201 9.17832 12.2201Z" fill="#2E3131"/>
<path d="M9.45535 13.11H7.23433C7.19661 13.11 7.16309 13.0764 7.16309 13.0386C7.16309 13.0009 7.19661 12.9673 7.23433 12.9673H9.45535C9.49307 12.9673 9.52659 13.0009 9.52659 13.0386C9.52659 13.0764 9.49307 13.11 9.45535 13.11Z" fill="#2E3131"/>
<path d="M9.73146 13.9996H6.95308C6.91536 13.9996 6.88184 13.9661 6.88184 13.9283C6.88184 13.8905 6.91536 13.8569 6.95308 13.8569H9.73146C9.76917 13.8569 9.8027 13.8905 9.8027 13.9283C9.8027 13.9661 9.77336 13.9996 9.73146 13.9996Z" fill="#2E3131"/>
<path d="M9.17832 3.922H7.51045C7.47273 3.922 7.43921 3.88842 7.43921 3.85065C7.43921 3.81287 7.47273 3.7793 7.51045 3.7793H9.17832C9.21603 3.7793 9.24956 3.81287 9.24956 3.85065C9.24956 3.88842 9.21603 3.922 9.17832 3.922Z" fill="#2E3131"/>
<path d="M9.45535 3.03186H7.23433C7.19661 3.03186 7.16309 2.99829 7.16309 2.96051C7.16309 2.92274 7.19661 2.88916 7.23433 2.88916H9.45535C9.49307 2.88916 9.52659 2.92274 9.52659 2.96051C9.52659 2.99829 9.49307 3.03186 9.45535 3.03186Z" fill="#2E3131"/>
<defs>
<linearGradient id="paint0_linear_3178_10961" x1="0" y1="0" x2="22.8504" y2="7.20675" gradientUnits="userSpaceOnUse">
<stop stop-color="#E0E7FF"/>
<stop offset="1" stop-color="#DAFFF6"/>
</linearGradient>
</defs>
</svg>
