<svg width="113" height="44" viewBox="0 0 113 44" fill="none" xmlns="http://www.w3.org/2000/svg">
<path d="M16.4638 37.4242C16.3567 37.4242 16.2496 37.3479 16.219 37.241C16.0201 36.5695 16.0966 36.0047 16.4485 35.5774C17.2134 34.6464 19.034 34.7379 19.2941 34.7685C19.8448 34.7074 19.8907 34.6921 20.1661 34.6158C20.5945 34.4785 20.8393 34.1427 20.8087 33.7458C20.7628 33.288 20.9158 32.9369 21.2676 32.708C21.3594 32.6469 21.4206 32.5859 21.4206 32.5248C21.4206 32.479 21.39 32.418 21.3288 32.3569L21.1299 32.1585L21.3441 31.9754C21.3594 31.9601 21.39 31.9448 21.4053 31.9296C21.4512 31.8991 21.4818 31.8685 21.5124 31.838C21.6195 31.7464 21.6195 31.7006 21.6195 31.7006C21.6195 31.7006 21.6042 31.6548 21.5124 31.5633C21.39 31.4259 21.237 31.2275 21.2676 30.9833C21.2982 30.7391 21.5124 30.5712 21.6807 30.4796L21.7419 30.4338C21.8949 30.3422 21.9408 30.2659 21.9408 30.2201C21.9408 30.1896 21.8949 30.1133 21.7419 29.9912C21.0535 29.4875 20.7169 28.8007 20.7934 28.007C20.8087 27.8239 20.8546 27.656 20.9005 27.4881C20.9158 27.4271 20.9311 27.3507 20.9464 27.2897C21.0535 26.8013 21.0687 26.3129 20.977 25.855C20.8546 25.2597 20.6098 24.8477 20.3344 24.405L20.3038 24.3592C20.0284 23.9472 19.6154 23.3061 18.7739 22.7414C18.6515 22.6651 18.6209 22.4972 18.6974 22.3903C18.7739 22.2682 18.9422 22.2377 19.0493 22.314C19.9672 22.9398 20.4262 23.6114 20.7169 24.0693L20.7475 24.115C21.0535 24.5729 21.3441 25.0461 21.4665 25.7482C21.5736 26.2671 21.5583 26.8318 21.4359 27.3813C21.4206 27.4576 21.4053 27.5186 21.39 27.595C21.3441 27.7476 21.3135 27.8849 21.2982 28.0223C21.2523 28.6328 21.4971 29.1518 22.0479 29.5486C22.3233 29.747 22.4609 29.9759 22.4609 30.2049C22.4609 30.4338 22.308 30.6475 22.0326 30.8307L21.9714 30.8764C21.8184 30.968 21.8031 31.0138 21.8031 31.0291C21.8031 31.0291 21.8184 31.0749 21.9102 31.197C22.2315 31.548 22.2162 31.8533 21.8643 32.189L21.849 32.2043C21.9255 32.3417 21.9255 32.4638 21.9255 32.5554C21.9102 32.708 21.8337 32.9217 21.5583 33.1048C21.3594 33.2422 21.2982 33.3948 21.3288 33.6695C21.39 34.3258 21.0076 34.8753 20.3344 35.089C20.0131 35.1958 19.9213 35.1958 19.34 35.2721H19.3094H19.2788C18.7739 35.2263 17.3664 35.2569 16.8463 35.8979C16.6015 36.1879 16.5709 36.5847 16.7239 37.0884C16.7698 37.2258 16.6933 37.3631 16.5556 37.4089C16.5097 37.4089 16.4944 37.4242 16.4638 37.4242Z" fill="#6366F1"/>
<path d="M6.19701 18.4056C6.04402 18.4056 5.93693 18.2835 5.93693 18.1461C5.95223 17.7493 5.84514 17.444 5.61565 17.2609C5.15669 16.864 4.33054 17.0014 4.31525 17.0014H4.29995C4.11636 17.0167 3.62679 17.1846 3.35141 17.2914H3.33612C2.87715 17.4135 2.47938 17.3982 2.1122 17.2304C1.40845 16.9556 0.980084 16.5741 0.811796 16.0856C0.61291 15.5362 0.872992 15.0783 0.888291 15.0478C1.13307 14.6052 1.13307 14.4678 0.827095 14.2846C0.658807 14.1778 0.551715 13.9794 0.505818 13.7657C0.47522 13.5368 0.521117 13.3078 0.643508 13.1399C0.261035 12.7431 0.429323 12.3157 0.658807 11.9647C0.674106 11.9494 0.689405 11.9342 0.689405 11.9036C0.811796 11.7205 0.811796 11.6747 0.765899 11.6137L0.735301 11.5984L0.689405 11.5373C0.628209 11.4305 0.567014 11.3542 0.490519 11.2779C0.184541 11.0184 0.0162529 10.7132 0.00095398 10.3926C-0.0143449 10.0111 0.153943 9.61423 0.536416 9.2174C0.582312 9.17161 0.628209 9.11056 0.674106 9.04951C0.689405 9.01898 0.720003 8.98846 0.735301 8.95793L0.7506 8.94267C0.811796 8.86636 0.888291 8.79004 0.949486 8.71373C1.10248 8.53057 1.27076 8.34742 1.46965 8.19479C1.57674 8.10322 1.65324 8.05743 1.69913 8.04217C1.69913 8.04217 1.69913 8.04217 1.71443 8.04217C1.71443 8.0269 1.72973 8.01164 1.74503 7.96585L1.76033 7.95059C1.79093 7.87428 1.82152 7.82849 1.82152 7.55376V7.18745C1.85212 6.50063 2.1122 5.93591 2.37228 5.38645C2.46408 5.20329 2.55587 5.00488 2.63237 4.80646L2.64767 4.7912C2.72416 4.63857 2.78536 4.50121 2.86185 4.36384C3.15253 3.78386 3.41261 3.2344 3.81038 2.74599C3.93277 2.59336 3.99397 2.37968 4.05516 2.15074L4.07046 2.08969C4.28465 1.35708 4.77421 0.807617 5.09549 0.456574C5.12609 0.426048 5.15669 0.395523 5.18728 0.349734C5.27908 0.242895 5.44737 0.227632 5.55446 0.334472C5.66155 0.426048 5.67685 0.593939 5.56976 0.700778C5.53916 0.731304 5.50856 0.761829 5.47796 0.807617C5.17198 1.1434 4.74362 1.61654 4.56003 2.24232L4.52943 2.28811C4.45294 2.54757 4.37644 2.80704 4.19285 3.05124C3.82568 3.50913 3.5809 4.02806 3.30552 4.57752C3.22902 4.71488 3.16783 4.86751 3.09133 5.00488C3.01484 5.20329 2.90775 5.40171 2.83125 5.60012C2.58647 6.11906 2.34169 6.60747 2.32639 7.18745V7.5385C2.32639 7.88954 2.29579 7.99638 2.2193 8.14901L2.204 8.16427C2.1275 8.33216 2.08161 8.39321 1.95921 8.46952C1.92862 8.48479 1.86742 8.51531 1.79093 8.59163C1.63794 8.71373 1.50025 8.88162 1.34726 9.04951C1.28606 9.12582 1.20957 9.20214 1.14837 9.27845C1.13307 9.30898 1.11777 9.32424 1.08718 9.35476C1.04128 9.43108 0.980084 9.49213 0.918888 9.56844C0.643508 9.85844 0.505818 10.1332 0.521117 10.3621C0.536416 10.5453 0.628209 10.7284 0.827095 10.8963C0.964785 11.0184 1.05658 11.1558 1.11777 11.2779L1.14837 11.3237C1.45435 11.69 1.20957 12.0563 1.10248 12.2089C1.11777 12.2089 1.10248 12.2242 1.08718 12.2394C0.857693 12.621 0.888291 12.7126 1.13307 12.8957C1.25546 12.9873 1.30136 13.0789 1.28606 13.201C1.27076 13.3689 1.11777 13.4299 1.05658 13.4604C1.05658 13.4604 1.04128 13.4604 1.04128 13.4757C1.01068 13.5215 0.995383 13.5978 1.01068 13.7047C1.02598 13.781 1.05658 13.842 1.10248 13.8725C1.86742 14.361 1.48495 15.0325 1.33196 15.3225C1.33196 15.3378 1.17897 15.6125 1.30136 15.933C1.42375 16.2535 1.77563 16.5435 2.32639 16.7572H2.34169C2.58647 16.8793 2.86185 16.8793 3.19843 16.7877C3.32082 16.7419 3.96337 16.513 4.25405 16.4672C4.37644 16.452 5.34027 16.2993 5.95223 16.8335C6.3041 17.1235 6.47239 17.5661 6.45709 18.1309C6.45709 18.2987 6.3347 18.4056 6.19701 18.4056Z" fill="#2DD4BF"/>
<path d="M5.35615 43.8965C5.21846 43.8965 5.09607 43.7744 5.09607 43.637C5.09607 38.8903 8.44653 35.8835 10.8944 33.701C11.0626 33.5483 11.2156 33.411 11.3686 33.2736C11.7664 32.9073 12.2254 32.4952 12.5772 32.1442C12.822 31.9 13.0821 31.6558 13.3575 31.3963L13.5105 31.2437C15.8206 29.0458 18.6815 26.2985 18.6815 22.1013C18.6815 17.5377 15.4075 14.5767 13.0209 12.4094L12.8679 12.272C12.4701 11.9057 12.0877 11.5547 11.7511 11.2189C11.5216 10.99 11.2768 10.761 11.0167 10.5168L10.619 10.1353C8.29354 7.93742 5.14197 4.93066 5.09607 0.53498C5.09607 0.397615 5.20316 0.275513 5.35615 0.275513C5.49384 0.275513 5.61623 0.382352 5.61623 0.53498C5.64683 4.71698 8.70661 7.63216 10.9556 9.76895L11.3686 10.1505C11.6287 10.3947 11.8735 10.6389 12.103 10.8679C12.4242 11.1884 12.8067 11.5394 13.2045 11.9057L13.3575 12.0431C15.8206 14.2715 19.1864 17.3088 19.1864 22.1165C19.1864 26.5275 16.2337 29.3511 13.8623 31.6252L13.7094 31.7779C13.434 32.0373 13.1892 32.2815 12.9444 32.5257C12.5772 32.892 12.1183 33.3041 11.7205 33.6704C11.5675 33.8078 11.4145 33.9452 11.2462 34.0978C8.8749 36.2193 5.61623 39.1345 5.61623 43.6523C5.61623 43.7744 5.49384 43.8965 5.35615 43.8965Z" fill="url(#paint0_linear_2848_983)"/>
<path d="M18.9248 43.895C18.7871 43.895 18.6647 43.7729 18.6647 43.6355C18.6647 39.1635 15.1612 35.9889 12.8358 33.8979L12.5757 33.6537C12.0862 33.2111 11.6884 32.8448 11.3518 32.509C11.0917 32.2495 10.8164 31.99 10.541 31.7153L10.4339 31.6085C8.06255 29.3343 5.10986 26.5107 5.10986 22.0998C5.10986 17.3225 8.47562 14.27 10.9387 12.0416L11.0764 11.9195C11.4895 11.5532 11.872 11.1869 12.2086 10.8664C12.4227 10.6527 12.6369 10.439 12.8817 10.2101L13.1112 9.98114C13.2336 9.85903 13.356 9.7522 13.4784 9.63009C15.6814 7.53909 18.68 4.68496 18.68 0.518225C18.68 0.380861 18.8024 0.258759 18.9401 0.258759C19.0778 0.258759 19.2002 0.380861 19.2002 0.518225C19.2002 4.9139 16.0945 7.85961 13.8302 10.0117C13.7079 10.1338 13.5855 10.2406 13.4631 10.3627L13.2336 10.5916C13.0041 10.8206 12.7746 11.0343 12.5757 11.2327C12.2392 11.5685 11.8414 11.9348 11.4283 12.3163L11.3059 12.4384C8.90399 14.6058 5.64533 17.5667 5.64533 22.1303C5.64533 26.3276 8.50622 29.0596 10.8164 31.2727L10.9234 31.3795C11.2141 31.6543 11.4895 31.9137 11.7496 32.1732C12.0862 32.509 12.4839 32.86 12.9582 33.3026L13.2183 33.5468C15.6049 35.6989 19.2155 38.9651 19.2155 43.666C19.1849 43.7729 19.0625 43.895 18.9248 43.895Z" fill="url(#paint1_linear_2848_983)"/>
<path d="M9.16481 28.3419H15.2538C15.3915 28.3419 15.5139 28.4641 15.5139 28.6014C15.5139 28.7388 15.3915 28.8609 15.2538 28.8609H9.16481C9.02712 28.8609 8.90472 28.7388 8.90472 28.6014C8.90472 28.4641 9.02712 28.3419 9.16481 28.3419Z" fill="url(#paint2_linear_2848_983)"/>
<path d="M9.16481 15.3846H15.2538C15.3915 15.3846 15.5139 15.5067 15.5139 15.644C15.5139 15.7814 15.3915 15.9035 15.2538 15.9035H9.16481C9.02712 15.9035 8.90472 15.7814 8.90472 15.644C8.90472 15.5067 9.02712 15.3846 9.16481 15.3846Z" fill="url(#paint3_linear_2848_983)"/>
<path d="M8.15632 25.1068H16.2647C16.4024 25.1068 16.5248 25.2289 16.5248 25.3663C16.5248 25.5036 16.4024 25.6257 16.2647 25.6257H8.15632C8.01863 25.6257 7.89624 25.5036 7.89624 25.3663C7.89624 25.2289 8.00333 25.1068 8.15632 25.1068Z" fill="url(#paint4_linear_2848_983)"/>
<path d="M8.15632 18.6212H16.2647C16.4024 18.6212 16.5248 18.7433 16.5248 18.8807C16.5248 19.0181 16.4024 19.1402 16.2647 19.1402H8.15632C8.01863 19.1402 7.89624 19.0181 7.89624 18.8807C7.89624 18.7433 8.00333 18.6212 8.15632 18.6212Z" fill="url(#paint5_linear_2848_983)"/>
<path d="M7.12944 21.8701H17.2726C17.4103 21.8701 17.5327 21.9922 17.5327 22.1296C17.5327 22.2669 17.4103 22.3891 17.2726 22.3891H7.12944C6.99175 22.3891 6.86935 22.2669 6.86935 22.1296C6.86935 21.9922 6.99175 21.8701 7.12944 21.8701Z" fill="url(#paint6_linear_2848_983)"/>
<path d="M17.2726 0.777692H7.12944C6.99175 0.777692 6.86935 0.65559 6.86935 0.518225C6.86935 0.380861 6.99175 0.258759 7.12944 0.258759H17.2726C17.4103 0.258759 17.5327 0.380861 17.5327 0.518225C17.5327 0.65559 17.4256 0.777692 17.2726 0.777692Z" fill="url(#paint7_linear_2848_983)"/>
<path d="M15.2538 37.4234H9.16481C9.02712 37.4234 8.90472 37.3013 8.90472 37.164C8.90472 37.0266 9.02712 36.9045 9.16481 36.9045H15.2538C15.3915 36.9045 15.5139 37.0266 15.5139 37.164C15.5139 37.3013 15.3915 37.4234 15.2538 37.4234Z" fill="url(#paint8_linear_2848_983)"/>
<path d="M16.2647 40.6601H8.15632C8.01863 40.6601 7.89624 40.538 7.89624 40.4006C7.89624 40.2633 8.01863 40.1412 8.15632 40.1412H16.2647C16.4024 40.1412 16.5248 40.2633 16.5248 40.4006C16.5248 40.538 16.4024 40.6601 16.2647 40.6601Z" fill="url(#paint9_linear_2848_983)"/>
<path d="M17.2726 43.8953H7.12944C6.99175 43.8953 6.86935 43.7732 6.86935 43.6358C6.86935 43.4984 6.99175 43.3763 7.12944 43.3763H17.2726C17.4103 43.3763 17.5327 43.4984 17.5327 43.6358C17.5327 43.7732 17.4256 43.8953 17.2726 43.8953Z" fill="url(#paint10_linear_2848_983)"/>
<path d="M15.2538 7.248H9.16481C9.02712 7.248 8.90472 7.1259 8.90472 6.98853C8.90472 6.85117 9.02712 6.72906 9.16481 6.72906H15.2538C15.3915 6.72906 15.5139 6.85117 15.5139 6.98853C15.5139 7.1259 15.3915 7.248 15.2538 7.248Z" fill="url(#paint11_linear_2848_983)"/>
<path d="M16.2647 4.01133H8.15632C8.01863 4.01133 7.89624 3.88923 7.89624 3.75187C7.89624 3.6145 8.01863 3.4924 8.15632 3.4924H16.2647C16.4024 3.4924 16.5248 3.6145 16.5248 3.75187C16.5248 3.88923 16.4024 4.01133 16.2647 4.01133Z" fill="url(#paint12_linear_2848_983)"/>
<path d="M46.0828 19.2291H43.788L41.5697 14.2535H31.2888L29.0551 19.2291H26.8674L35.4807 0.272766H37.4695L46.0828 19.2291ZM36.4445 2.77586L32.1302 12.3761H40.7282L36.4445 2.77586Z" fill="#6366F1"/>
<path d="M64.1949 0.35202H65.9543L71.1253 16.0879L76.5258 0.397809H78.7595L72.0127 19.3694H70.2074L65.0364 4.0914L59.8347 19.3694H58.0601L51.3132 0.397809H53.6387L59.0392 16.0879L64.1949 0.35202Z" fill="#2DD4BF"/>
<path d="M87.3121 2.28941V0H89.6834V2.28941H87.3121ZM87.4498 19.2311V5.3267H89.5304V19.2311H87.4498Z" fill="#6366F1"/>
<path d="M101.954 6.30334C102.092 6.66965 102.352 6.99016 102.734 7.28016C103.117 7.57015 103.637 7.84488 104.295 8.08908C104.953 8.33329 105.81 8.56223 106.85 8.77591C108.961 9.24905 110.506 9.89009 111.501 10.7143C112.495 11.5385 113 12.6832 113 14.1331C113 14.9421 112.847 15.6747 112.526 16.3462C112.204 17.0178 111.761 17.5825 111.21 18.0404C110.644 18.5135 109.971 18.8646 109.175 19.1241C108.38 19.3683 107.523 19.5056 106.59 19.5056C105.075 19.5056 103.698 19.2614 102.444 18.773C101.189 18.2846 99.9959 17.5367 98.8638 16.5141L100.18 14.9573C101.174 15.8578 102.168 16.5294 103.178 16.9567C104.188 17.3994 105.351 17.613 106.651 17.613C107.921 17.613 108.946 17.3231 109.711 16.7278C110.476 16.1326 110.858 15.3542 110.858 14.3773C110.858 13.9347 110.782 13.5226 110.644 13.1716C110.506 12.8205 110.246 12.5 109.894 12.21C109.527 11.92 109.038 11.6606 108.395 11.4316C107.752 11.2027 106.942 10.9737 105.947 10.7601C104.861 10.5311 103.928 10.2564 103.117 9.95114C102.321 9.64588 101.648 9.27958 101.128 8.85222C100.608 8.42486 100.225 7.92119 99.9653 7.34121C99.7205 6.76122 99.5829 6.08966 99.5829 5.296C99.5829 4.54812 99.7358 3.84604 100.042 3.22026C100.348 2.59449 100.776 2.04503 101.342 1.58715C101.893 1.12926 102.551 0.762958 103.316 0.503491C104.065 0.244024 104.892 0.106659 105.794 0.106659C107.171 0.106659 108.38 0.289812 109.42 0.671381C110.46 1.05295 111.455 1.61767 112.434 2.38081L111.195 4.02919C110.307 3.31184 109.435 2.7929 108.533 2.47239C107.645 2.15187 106.712 1.98398 105.748 1.98398C105.136 1.98398 104.586 2.06029 104.096 2.22818C103.606 2.39607 103.178 2.60975 102.826 2.86922C102.474 3.14395 102.199 3.46447 102.015 3.84604C101.832 4.2276 101.725 4.62444 101.725 5.05179C101.74 5.5402 101.816 5.93703 101.954 6.30334Z" fill="#6366F1"/>
<path d="M33.4288 31.4582H32.6333L31.853 29.7182H28.2578L27.4776 31.4582H26.7126L29.7265 24.8189H30.4303L33.4288 31.4582ZM30.0631 25.7041L28.5485 29.0619H31.5624L30.0631 25.7041Z" fill="#6366F1"/>
<path d="M36.5505 25.5346V24.8783H41.7062V25.382L37.4225 30.8155H41.7062V31.4718H36.4128V30.9681L40.6812 25.5346H36.5505Z" fill="#6366F1"/>
<path d="M50.0141 25.5515H45.9905V27.7951H49.5858V28.4666H45.9752V30.7713H50.06V31.4429H45.2409V24.8494H50.0141V25.5515Z" fill="#6366F1"/>
<path d="M58.0932 31.4581L56.1808 28.894H54.299V31.4581H53.5494V24.8646H56.395C56.7621 24.8646 57.0834 24.9104 57.3741 25.002C57.6648 25.0935 57.9096 25.2309 58.1237 25.3988C58.3379 25.5667 58.4909 25.7804 58.598 26.0246C58.7051 26.2688 58.7663 26.5282 58.7663 26.8335C58.7663 27.1082 58.7204 27.3524 58.6286 27.5661C58.5368 27.7798 58.4144 27.9782 58.2614 28.1308C58.1085 28.2835 57.9096 28.4208 57.6954 28.5277C57.4812 28.6345 57.2364 28.7108 56.9763 28.7566L59.0111 31.4428H58.0932V31.4581ZM57.5883 25.9025C57.2976 25.6735 56.8692 25.5514 56.3338 25.5514H54.2837V28.2377H56.3185C56.5633 28.2377 56.7927 28.2071 57.0069 28.1461C57.2211 28.085 57.3894 27.9935 57.5424 27.8714C57.6954 27.7493 57.8178 27.6119 57.8943 27.444C57.9861 27.2761 58.0167 27.0777 58.0167 26.864C58.032 26.4519 57.879 26.1314 57.5883 25.9025Z" fill="#6366F1"/>
<path d="M66.0445 24.9867C66.3046 25.063 66.5341 25.1698 66.7176 25.3225C66.9012 25.4598 67.0542 25.643 67.146 25.8414C67.2531 26.0398 67.299 26.2688 67.299 26.5282C67.299 26.7419 67.2684 26.9403 67.2072 27.1082C67.146 27.2761 67.0695 27.4135 66.9624 27.5356C66.8553 27.6577 66.7482 27.7645 66.6258 27.8561C66.5035 27.9477 66.3811 28.0087 66.2434 28.0698C66.4423 28.1308 66.6258 28.2071 66.7941 28.2835C66.9624 28.375 67.1154 28.4819 67.2378 28.604C67.3602 28.7261 67.4673 28.8787 67.5438 29.0619C67.6203 29.245 67.6509 29.4434 67.6509 29.6571C67.6509 29.9471 67.5897 30.1913 67.4826 30.4202C67.3755 30.6492 67.2072 30.8323 66.993 30.985C66.7788 31.1376 66.534 31.2597 66.2281 31.336C65.9374 31.4123 65.6008 31.4581 65.2489 31.4581H62.3116V24.8646H65.1266C65.4784 24.8646 65.7844 24.9104 66.0445 24.9867ZM66.1363 27.5051C66.4117 27.3066 66.5646 27.0014 66.5646 26.6198C66.5646 26.284 66.4423 26.0246 66.1822 25.8261C65.9374 25.6277 65.5702 25.5362 65.096 25.5362H63.0918V27.8103H65.0348C65.4937 27.8103 65.8609 27.7035 66.1363 27.5051ZM66.5035 30.4966C66.7941 30.2829 66.9318 29.9929 66.9318 29.6113C66.9318 29.245 66.7788 28.9703 66.4882 28.7719C66.1975 28.5734 65.7538 28.4666 65.1724 28.4666H63.0918V30.8018H65.3101C65.815 30.8018 66.2128 30.695 66.5035 30.4966Z" fill="#6366F1"/>
<path d="M77.3072 31.4582H76.5116L75.7314 29.7182H72.1361L71.3559 31.4582H70.5909L73.6048 24.8189H74.3086L77.3072 31.4582ZM73.9414 25.7041L72.4268 29.0619H75.4407L73.9414 25.7041Z" fill="#6366F1"/>
<path d="M81.4086 24.8646V31.4581H80.6589V24.8646H81.4086Z" fill="#6366F1"/>
<path d="M88.614 30.2661C88.5069 30.556 88.3692 30.785 88.1856 30.9834C88.002 31.1818 87.7878 31.3192 87.543 31.4108C87.2983 31.5023 87.0229 31.5481 86.7169 31.5481C86.2273 31.5481 85.8143 31.4413 85.4777 31.2123C85.1564 30.9987 84.881 30.7087 84.6822 30.3729L85.2176 29.915C85.4165 30.2203 85.6307 30.4492 85.8602 30.6171C86.0897 30.7697 86.3803 30.8613 86.7169 30.8613C87.0841 30.8613 87.3901 30.7239 87.6348 30.4645C87.8796 30.205 88.002 29.8082 88.002 29.2892V24.8783H88.7517V29.2892C88.767 29.6555 88.7211 29.9913 88.614 30.2661Z" fill="#6366F1"/>
<path d="M98.4333 31.4582H97.6377L96.8575 29.7182H93.2622L92.482 31.4582H91.717L94.7309 24.8189H95.4347L98.4333 31.4582ZM95.0675 25.7041L93.5529 29.0619H96.5668L95.0675 25.7041Z" fill="#6366F1"/>
<path d="M106.59 24.8646H107.325V31.4581H106.728L102.46 26.0551V31.4581H101.741V24.8646H102.444L106.606 30.1455V24.8646H106.59Z" fill="#6366F1"/>
<path d="M111.974 24.8646V31.4581H111.225V24.8646H111.974Z" fill="#6366F1"/>
<path d="M30.3702 38.2321H30.8904L32.4509 42.9483L34.0726 38.2473H34.7457L32.7263 43.9404H32.1908L30.6303 39.3615L29.0698 43.9404H28.5343L26.5149 38.2473H27.2033L28.825 42.9483L30.3702 38.2321Z" fill="#2DD4BF"/>
<path d="M41.0467 42.1837C40.909 42.5348 40.7101 42.84 40.45 43.1148C40.1899 43.3895 39.8993 43.6032 39.5321 43.7558C39.1802 43.9084 38.7824 44 38.3541 44C37.9257 44 37.5279 43.9237 37.1761 43.7711C36.8242 43.6184 36.5182 43.4047 36.2581 43.13C35.998 42.8706 35.8145 42.55 35.6768 42.199C35.5391 41.8479 35.4779 41.4664 35.4779 41.0848C35.4779 40.688 35.5544 40.3217 35.6921 39.9706C35.8297 39.6196 36.0286 39.3143 36.2887 39.0396C36.5488 38.7649 36.8395 38.5512 37.2067 38.3986C37.5585 38.2459 37.9563 38.1544 38.3847 38.1544C38.813 38.1544 39.2108 38.2307 39.5627 38.3833C39.9146 38.5359 40.2205 38.7496 40.4653 39.0243C40.7254 39.2838 40.909 39.6043 41.0467 39.9554C41.1844 40.3064 41.2456 40.688 41.2456 41.0695C41.2609 41.4511 41.1844 41.8327 41.0467 42.1837ZM40.4194 40.169C40.3123 39.8791 40.1593 39.6348 39.9605 39.4212C39.7616 39.2075 39.5321 39.0396 39.2567 38.9175C38.9813 38.7954 38.6906 38.7343 38.3694 38.7343C38.0481 38.7343 37.7421 38.7954 37.482 38.9175C37.2067 39.0396 36.9772 39.2075 36.7783 39.4212C36.5794 39.6348 36.4264 39.8791 36.3193 40.1538C36.2122 40.4438 36.151 40.7338 36.151 41.0543C36.151 41.3748 36.2122 41.6801 36.3193 41.97C36.4264 42.26 36.5794 42.5042 36.7783 42.7179C36.9772 42.9316 37.2067 43.0995 37.482 43.2216C37.7574 43.3437 38.0481 43.4047 38.3694 43.4047C38.6906 43.4047 38.9966 43.3437 39.2567 43.2216C39.5321 43.0995 39.7616 42.9316 39.9605 42.7179C40.1593 42.5042 40.3123 42.26 40.4194 41.9853C40.5265 41.6953 40.5877 41.4053 40.5877 41.0695C40.5877 40.749 40.5418 40.4438 40.4194 40.169Z" fill="#2DD4BF"/>
<path d="M45.4536 42.3378H45.423L43.3576 39.3157V43.8793H42.7304V38.2321H43.3729L45.4383 41.3152L47.5036 38.2321H48.1462V43.8793H47.5036V39.3005L45.4536 42.3378Z" fill="#2DD4BF"/>
<path d="M53.9589 38.8288H50.5013V40.7519H53.5917V41.3319H50.5013V43.3161H53.9895V43.8961H49.8588V38.2488H53.9589V38.8288Z" fill="#2DD4BF"/>
<path d="M59.5774 38.2488H60.2047V43.8961H59.6998L56.0434 39.2562V43.8961H55.4161V38.2488H56.0128L59.5774 42.7819V38.2488Z" fill="#2DD4BF"/>
<path d="M65.1734 38.2073V43.8545H64.5309V38.2073H65.1734Z" fill="#6366F1"/>
<path d="M71.126 38.2488H71.7533V43.8961H71.2484L67.592 39.2562V43.8961H66.9647V38.2488H67.5614L71.126 42.7819V38.2488Z" fill="#6366F1"/>
<path d="M76.5743 40.018C76.6202 40.1248 76.6967 40.2317 76.8038 40.308C76.9109 40.3995 77.0792 40.4759 77.2781 40.5522C77.477 40.6285 77.737 40.6895 78.043 40.7506C78.6703 40.888 79.1445 41.0864 79.4352 41.3306C79.7259 41.5748 79.8789 41.9258 79.8789 42.3532C79.8789 42.5974 79.833 42.8111 79.7412 43.0095C79.6494 43.2079 79.5117 43.3758 79.3434 43.5132C79.1751 43.6505 78.9762 43.7574 78.7315 43.8337C78.4867 43.91 78.2419 43.9405 77.9512 43.9405C77.4923 43.9405 77.0792 43.8642 76.712 43.7268C76.3295 43.5742 75.9777 43.3605 75.6411 43.0553L76.0389 42.5821C76.3295 42.8569 76.6355 43.0553 76.9415 43.1774C77.2475 43.3147 77.584 43.3758 77.9818 43.3758C78.3643 43.3758 78.6703 43.2842 78.8997 43.1163C79.1292 42.9332 79.2363 42.7042 79.2363 42.4142C79.2363 42.2769 79.221 42.1548 79.1751 42.0479C79.1292 41.9411 79.0527 41.8495 78.9457 41.7579C78.8386 41.6664 78.6856 41.59 78.502 41.529C78.3031 41.4527 78.0583 41.3916 77.7676 41.3306C77.4464 41.2543 77.1557 41.178 76.9262 41.0864C76.6814 40.9948 76.4825 40.888 76.3295 40.7506C76.1765 40.6285 76.0542 40.4759 75.9777 40.2927C75.9012 40.1096 75.8706 39.9111 75.8706 39.6822C75.8706 39.4533 75.9165 39.2548 76.0083 39.0564C76.1001 38.8733 76.2224 38.7054 76.3907 38.568C76.559 38.4307 76.7579 38.3238 76.9874 38.2475C77.2169 38.1712 77.4617 38.1254 77.737 38.1254C78.1501 38.1254 78.5173 38.1864 78.8233 38.2933C79.1292 38.4001 79.4352 38.5833 79.7259 38.8122L79.3587 39.3006C79.0986 39.087 78.8233 38.9343 78.5632 38.8275C78.3031 38.7359 78.0124 38.6901 77.7217 38.6901C77.5381 38.6901 77.3699 38.7206 77.2169 38.7664C77.0639 38.8122 76.9415 38.8733 76.8344 38.9648C76.7273 39.0412 76.6508 39.148 76.5896 39.2548C76.5284 39.3617 76.4978 39.4838 76.4978 39.6211C76.5131 39.789 76.5284 39.9111 76.5743 40.018Z" fill="#6366F1"/>
<path d="M85.7053 43.4063C85.5523 43.5284 85.3687 43.6352 85.1851 43.7116C85.0015 43.8031 84.8026 43.8642 84.5884 43.91C84.3743 43.9558 84.1448 43.9863 83.8847 43.9863C83.4716 43.9863 83.1044 43.91 82.7526 43.7574C82.4007 43.6047 82.11 43.4063 81.8499 43.1468C81.5899 42.8874 81.391 42.5821 81.2533 42.2158C81.1156 41.8648 81.0391 41.4832 81.0391 41.0711C81.0391 40.6743 81.1156 40.2927 81.2533 39.9264C81.391 39.5754 81.5899 39.2548 81.8499 38.9954C82.11 38.7359 82.4007 38.5222 82.7526 38.3696C83.1044 38.217 83.4869 38.1407 83.9 38.1407C84.1601 38.1407 84.3896 38.1559 84.6037 38.2017C84.8179 38.2475 85.0015 38.3085 85.1851 38.3849C85.3687 38.4612 85.5217 38.5528 85.6747 38.6749C85.8277 38.7817 85.9653 38.9038 86.1183 39.0412L85.6747 39.5143C85.4299 39.2854 85.1698 39.1022 84.8944 38.9648C84.619 38.8122 84.2825 38.7512 83.9 38.7512C83.594 38.7512 83.3033 38.8122 83.028 38.9343C82.7679 39.0564 82.5231 39.2243 82.3395 39.4227C82.1406 39.6364 81.9876 39.8806 81.8805 40.1553C81.7734 40.4453 81.7122 40.7506 81.7122 41.0711C81.7122 41.4069 81.7734 41.7121 81.8805 41.9869C81.9876 42.2769 82.1406 42.5211 82.3395 42.7347C82.5384 42.9484 82.7679 43.1163 83.028 43.2384C83.288 43.3605 83.5787 43.4216 83.9 43.4216C84.2825 43.4216 84.619 43.3453 84.9097 43.2079C85.1851 43.0705 85.4605 42.8721 85.7359 42.6126L86.1642 43.0247C86.0265 43.1468 85.8735 43.2842 85.7053 43.4063Z" fill="#6366F1"/>
<path d="M88.1065 38.2488V43.8961H87.464V38.2488H88.1065Z" fill="#6366F1"/>
<path d="M93.981 38.8288H90.5235V40.7519H93.6138V41.3319H90.5235V43.3161H94.0116V43.8961H89.8809V38.2488H93.981V38.8288Z" fill="#6366F1"/>
<path d="M99.5981 38.2488H100.225V43.8961H99.7205L96.0641 39.2562V43.8961H95.4368V38.2488H96.0335L99.5981 42.7819V38.2488Z" fill="#6366F1"/>
<path d="M106.327 43.4063C106.174 43.5284 105.99 43.6352 105.807 43.7116C105.623 43.8031 105.424 43.8642 105.21 43.91C104.996 43.9558 104.767 43.9863 104.506 43.9863C104.093 43.9863 103.726 43.91 103.374 43.7574C103.022 43.6047 102.732 43.4063 102.472 43.1468C102.212 42.8874 102.013 42.5821 101.875 42.2158C101.737 41.8648 101.661 41.4832 101.661 41.0711C101.661 40.6743 101.737 40.2927 101.875 39.9264C102.013 39.5754 102.212 39.2548 102.472 38.9954C102.732 38.7359 103.022 38.5222 103.374 38.3696C103.726 38.217 104.109 38.1407 104.522 38.1407C104.782 38.1407 105.011 38.1559 105.226 38.2017C105.44 38.2475 105.623 38.3085 105.807 38.3849C105.99 38.4612 106.143 38.5528 106.296 38.6749C106.449 38.7817 106.587 38.9038 106.74 39.0412L106.296 39.5143C106.052 39.2854 105.792 39.1022 105.516 38.9648C105.241 38.8122 104.904 38.7512 104.522 38.7512C104.216 38.7512 103.925 38.8122 103.65 38.9343C103.39 39.0564 103.145 39.2243 102.961 39.4227C102.762 39.6364 102.609 39.8806 102.502 40.1553C102.395 40.4453 102.334 40.7506 102.334 41.0711C102.334 41.4069 102.395 41.7121 102.502 41.9869C102.609 42.2769 102.762 42.5211 102.961 42.7347C103.16 42.9484 103.39 43.1163 103.65 43.2384C103.91 43.3605 104.201 43.4216 104.522 43.4216C104.904 43.4216 105.241 43.3453 105.532 43.2079C105.807 43.0705 106.082 42.8721 106.358 42.6126L106.786 43.0247C106.648 43.1468 106.495 43.2842 106.327 43.4063Z" fill="#6366F1"/>
<path d="M112.128 38.8288H108.67V40.7519H111.76V41.3319H108.67V43.3161H112.158V43.8961H108.028V38.2488H112.128V38.8288Z" fill="#6366F1"/>
<defs>
<linearGradient id="paint0_linear_2848_983" x1="0.650917" y1="22.0906" x2="23.2122" y2="22.0906" gradientUnits="userSpaceOnUse">
<stop offset="0.193584" stop-color="#2DD4BF"/>
<stop offset="0.8302" stop-color="#6366F1"/>
</linearGradient>
<linearGradient id="paint1_linear_2848_983" x1="0.659884" y1="22.0815" x2="23.2456" y2="22.0815" gradientUnits="userSpaceOnUse">
<stop offset="0.193584" stop-color="#2DD4BF"/>
<stop offset="0.8302" stop-color="#6366F1"/>
</linearGradient>
<linearGradient id="paint2_linear_2848_983" x1="6.8197" y1="28.6015" x2="17.4022" y2="28.6015" gradientUnits="userSpaceOnUse">
<stop offset="0.193584" stop-color="#2DD4BF"/>
<stop offset="0.8302" stop-color="#6366F1"/>
</linearGradient>
<linearGradient id="paint3_linear_2848_983" x1="6.8197" y1="15.6441" x2="17.4022" y2="15.6441" gradientUnits="userSpaceOnUse">
<stop offset="0.193584" stop-color="#2DD4BF"/>
<stop offset="0.8302" stop-color="#6366F1"/>
</linearGradient>
<linearGradient id="paint4_linear_2848_983" x1="5.17413" y1="25.3663" x2="18.9901" y2="25.3663" gradientUnits="userSpaceOnUse">
<stop offset="0.193584" stop-color="#2DD4BF"/>
<stop offset="0.8302" stop-color="#6366F1"/>
</linearGradient>
<linearGradient id="paint5_linear_2848_983" x1="5.17413" y1="18.8808" x2="18.9901" y2="18.8808" gradientUnits="userSpaceOnUse">
<stop offset="0.193584" stop-color="#2DD4BF"/>
<stop offset="0.8302" stop-color="#6366F1"/>
</linearGradient>
<linearGradient id="paint6_linear_2848_983" x1="3.50533" y1="22.1296" x2="20.5794" y2="22.1296" gradientUnits="userSpaceOnUse">
<stop offset="0.193584" stop-color="#2DD4BF"/>
<stop offset="0.8302" stop-color="#6366F1"/>
</linearGradient>
<linearGradient id="paint7_linear_2848_983" x1="3.50533" y1="0.51828" x2="20.5794" y2="0.51828" gradientUnits="userSpaceOnUse">
<stop offset="0.193584" stop-color="#2DD4BF"/>
<stop offset="0.8302" stop-color="#6366F1"/>
</linearGradient>
<linearGradient id="paint8_linear_2848_983" x1="6.8197" y1="37.164" x2="17.4022" y2="37.164" gradientUnits="userSpaceOnUse">
<stop offset="0.193584" stop-color="#2DD4BF"/>
<stop offset="0.8302" stop-color="#6366F1"/>
</linearGradient>
<linearGradient id="paint9_linear_2848_983" x1="5.17413" y1="40.4007" x2="18.9901" y2="40.4007" gradientUnits="userSpaceOnUse">
<stop offset="0.193584" stop-color="#2DD4BF"/>
<stop offset="0.8302" stop-color="#6366F1"/>
</linearGradient>
<linearGradient id="paint10_linear_2848_983" x1="3.50533" y1="43.6359" x2="20.5794" y2="43.6359" gradientUnits="userSpaceOnUse">
<stop offset="0.193584" stop-color="#2DD4BF"/>
<stop offset="0.8302" stop-color="#6366F1"/>
</linearGradient>
<linearGradient id="paint11_linear_2848_983" x1="6.8197" y1="6.98859" x2="17.4022" y2="6.98859" gradientUnits="userSpaceOnUse">
<stop offset="0.193584" stop-color="#2DD4BF"/>
<stop offset="0.8302" stop-color="#6366F1"/>
</linearGradient>
<linearGradient id="paint12_linear_2848_983" x1="5.17413" y1="3.75192" x2="18.9901" y2="3.75192" gradientUnits="userSpaceOnUse">
<stop offset="0.193584" stop-color="#2DD4BF"/>
<stop offset="0.8302" stop-color="#6366F1"/>
</linearGradient>
</defs>
</svg>
