<svg width="110" height="43" viewBox="0 0 110 43" fill="none" xmlns="http://www.w3.org/2000/svg">
<path d="M16.0267 36.5737C15.9224 36.5737 15.8182 36.4992 15.7884 36.3948C15.5948 35.7385 15.6693 35.1866 16.0118 34.7689C16.7564 33.8591 18.5287 33.9485 18.7818 33.9784C19.318 33.9187 19.3627 33.9038 19.6307 33.8292C20.0477 33.695 20.286 33.3668 20.2562 32.979C20.2115 32.5315 20.3605 32.1885 20.703 31.9647C20.7924 31.9051 20.8519 31.8454 20.8519 31.7857C20.8519 31.741 20.8221 31.6813 20.7626 31.6217L20.569 31.4278L20.7775 31.2488C20.7924 31.2339 20.8221 31.2189 20.837 31.204C20.8817 31.1742 20.9115 31.1444 20.9413 31.1145C21.0455 31.025 21.0455 30.9803 21.0455 30.9803C21.0455 30.9803 21.0306 30.9355 20.9413 30.846C20.8221 30.7118 20.6732 30.5179 20.703 30.2792C20.7328 30.0406 20.9413 29.8765 21.1051 29.787L21.1647 29.7423C21.3136 29.6528 21.3583 29.5782 21.3583 29.5334C21.3583 29.5036 21.3136 29.429 21.1647 29.3097C20.4945 28.8175 20.1669 28.1463 20.2413 27.3706C20.2562 27.1917 20.3009 27.0276 20.3456 26.8635C20.3605 26.8038 20.3754 26.7293 20.3903 26.6696C20.4945 26.1923 20.5094 25.715 20.42 25.2675C20.3009 24.6858 20.0626 24.2831 19.7945 23.8505L19.7648 23.8057C19.4967 23.403 19.0946 22.7766 18.2755 22.2247C18.1563 22.1501 18.1266 21.986 18.201 21.8816C18.2755 21.7623 18.4393 21.7324 18.5436 21.807C19.4371 22.4186 19.8839 23.0749 20.1669 23.5223L20.1967 23.5671C20.4945 24.0146 20.7775 24.477 20.8966 25.1631C21.0009 25.6702 20.986 26.2221 20.8668 26.7591C20.8519 26.8337 20.837 26.8933 20.8221 26.9679C20.7775 27.1171 20.7477 27.2513 20.7328 27.3856C20.6881 27.9822 20.9264 28.4893 21.4625 28.8771C21.7306 29.0711 21.8646 29.2948 21.8646 29.5185C21.8646 29.7423 21.7157 29.9511 21.4476 30.1301L21.3881 30.1748C21.2391 30.2643 21.2243 30.3091 21.2243 30.324C21.2243 30.324 21.2391 30.3687 21.3285 30.4881C21.6413 30.8311 21.6264 31.1294 21.2838 31.4576L21.2689 31.4725C21.3434 31.6068 21.3434 31.7261 21.3434 31.8156C21.3285 31.9647 21.254 32.1736 20.986 32.3525C20.7924 32.4868 20.7328 32.636 20.7626 32.9044C20.8221 33.5458 20.4498 34.0828 19.7945 34.2916C19.4818 34.396 19.3924 34.396 18.8265 34.4706H18.7967H18.767C18.2755 34.4259 16.9054 34.4557 16.399 35.0822C16.1607 35.3656 16.1309 35.7534 16.2799 36.2456C16.3245 36.3798 16.2501 36.5141 16.116 36.5588C16.0714 36.5588 16.0565 36.5737 16.0267 36.5737Z" fill="#2E3131"/>
<path d="M6.03249 17.9873C5.88356 17.9873 5.77931 17.8679 5.77931 17.7337C5.79421 17.3459 5.68996 17.0476 5.46657 16.8686C5.01978 16.4808 4.21558 16.615 4.20068 16.615H4.18579C4.00708 16.6299 3.53051 16.794 3.26244 16.8984H3.24755C2.80076 17.0177 2.41355 17.0028 2.05613 16.8387C1.37106 16.5703 0.954064 16.1974 0.790244 15.7201C0.596638 15.1831 0.849815 14.7356 0.864708 14.7058C1.10299 14.2732 1.10299 14.139 0.805137 13.96C0.641317 13.8556 0.537067 13.6617 0.492389 13.4528C0.462604 13.2291 0.507282 13.0054 0.626424 12.8413C0.254105 12.4535 0.417925 12.0358 0.641317 11.6928C0.656209 11.6779 0.671102 11.6629 0.671102 11.6331C0.790244 11.4541 0.790244 11.4094 0.745566 11.3497L0.71578 11.3348L0.671102 11.2751C0.611531 11.1707 0.55196 11.0961 0.477496 11.0216C0.179642 10.768 0.0158214 10.4697 0.000928653 10.1564C-0.0139641 9.78353 0.149856 9.39572 0.522175 9.00791C0.566853 8.96316 0.611531 8.9035 0.656209 8.84383C0.671102 8.814 0.700888 8.78417 0.71578 8.75434L0.730673 8.73942C0.790244 8.66484 0.864708 8.59026 0.924279 8.51568C1.07321 8.33669 1.23703 8.1577 1.43063 8.00854C1.53488 7.91905 1.60934 7.8743 1.65402 7.85938C1.65402 7.85938 1.65402 7.85938 1.66892 7.85938C1.66892 7.84447 1.68381 7.82955 1.6987 7.7848L1.71359 7.76989C1.74338 7.69531 1.77317 7.65056 1.77317 7.38208V7.02409C1.80295 6.35288 2.05613 5.80099 2.3093 5.26402C2.39866 5.08503 2.48802 4.89112 2.56248 4.69722L2.57737 4.6823C2.65184 4.53314 2.71141 4.3989 2.78587 4.26466C3.06883 3.69785 3.32201 3.16088 3.70922 2.68357C3.82836 2.53441 3.88793 2.32559 3.94751 2.10185L3.9624 2.04219C4.1709 1.32623 4.64746 0.789256 4.96021 0.446191C4.99 0.416359 5.01978 0.386527 5.04957 0.34178C5.13893 0.237369 5.30275 0.222453 5.40699 0.326864C5.51124 0.416359 5.52614 0.580434 5.42189 0.684845C5.3921 0.714677 5.36232 0.744509 5.33253 0.789256C5.03468 1.11741 4.61768 1.5798 4.43897 2.19135L4.40918 2.2361C4.33472 2.48967 4.26025 2.74324 4.08154 2.98189C3.72411 3.42937 3.48583 3.93651 3.21776 4.47348C3.1433 4.60772 3.08373 4.75688 3.00926 4.89112C2.9348 5.08503 2.83055 5.27894 2.75609 5.47284C2.5178 5.97998 2.27952 6.45729 2.26463 7.02409V7.36716C2.26463 7.71023 2.23484 7.81464 2.16038 7.9638L2.14548 7.97871C2.07102 8.14279 2.02634 8.20245 1.9072 8.27703C1.87741 8.29194 1.81784 8.32178 1.74338 8.39636C1.59445 8.51568 1.46042 8.67976 1.31149 8.84383C1.25192 8.91841 1.17746 8.99299 1.11788 9.06757C1.10299 9.0974 1.0881 9.11232 1.05831 9.14215C1.01364 9.21673 0.954064 9.27639 0.894493 9.35097C0.626424 9.63437 0.492389 9.90286 0.507282 10.1266C0.522175 10.3056 0.611531 10.4846 0.805137 10.6487C0.939171 10.768 1.02853 10.9022 1.0881 11.0216L1.11788 11.0663C1.41574 11.4243 1.17746 11.7823 1.07321 11.9314C1.0881 11.9314 1.07321 11.9463 1.05831 11.9613C0.834922 12.3341 0.864708 12.4236 1.10299 12.6026C1.22213 12.6921 1.26681 12.7816 1.25192 12.901C1.23703 13.065 1.0881 13.1247 1.02853 13.1545C1.02853 13.1545 1.01364 13.1545 1.01364 13.1694C0.98385 13.2142 0.968957 13.2888 0.98385 13.3932C0.998742 13.4678 1.02853 13.5274 1.07321 13.5573C1.81784 14.0346 1.44552 14.6909 1.2966 14.9743C1.2966 14.9892 1.14767 15.2577 1.26681 15.5709C1.38595 15.8841 1.72849 16.1675 2.26463 16.3764H2.27952C2.5178 16.4957 2.78587 16.4957 3.11351 16.4062C3.23265 16.3614 3.85815 16.1377 4.14111 16.093C4.26025 16.078 5.1985 15.9289 5.79421 16.4509C6.13674 16.7343 6.30056 17.1669 6.28567 17.7188C6.28567 17.8829 6.16652 17.9873 6.03249 17.9873Z" fill="#2E3131"/>
<path d="M5.21396 42.8989C5.07993 42.8989 4.96078 42.7795 4.96078 42.6453C4.96078 38.0065 8.22229 35.068 10.6051 32.9351C10.769 32.7859 10.9179 32.6517 11.0668 32.5174C11.454 32.1594 11.9008 31.7567 12.2433 31.4136C12.4816 31.175 12.7348 30.9363 13.0029 30.6828L13.1518 30.5336C15.4006 28.3857 18.1855 25.7009 18.1855 21.599C18.1855 17.1391 14.9985 14.2455 12.6752 12.1274L12.5263 11.9932C12.1391 11.6352 11.7668 11.2921 11.4391 10.964C11.2157 10.7402 10.9775 10.5165 10.7243 10.2778L10.3371 9.90495C8.07337 7.75706 5.00546 4.81863 4.96078 0.522857C4.96078 0.388614 5.06503 0.269287 5.21396 0.269287C5.348 0.269287 5.46714 0.373698 5.46714 0.522857C5.49692 4.60981 8.47547 7.45874 10.6647 9.54696L11.0668 9.91986C11.32 10.1585 11.5583 10.3972 11.7817 10.6209C12.0944 10.9341 12.4667 11.2772 12.8539 11.6352L13.0029 11.7694C15.4006 13.9471 18.677 16.9154 18.677 21.6139C18.677 25.9246 15.8027 28.684 13.4943 30.9065L13.3454 31.0557C13.0773 31.3092 12.839 31.5479 12.6008 31.7865C12.2433 32.1445 11.7966 32.5473 11.4093 32.9052C11.2604 33.0395 11.1115 33.1737 10.9477 33.3229C8.63929 35.3962 5.46714 38.2451 5.46714 42.6602C5.46714 42.7795 5.348 42.8989 5.21396 42.8989Z" fill="#2E3131"/>
<path d="M18.4224 42.8974C18.2883 42.8974 18.1692 42.7781 18.1692 42.6439C18.1692 38.2735 14.7587 35.171 12.495 33.1275L12.2419 32.8889C11.7653 32.4563 11.3781 32.0983 11.0505 31.7702C10.7973 31.5166 10.5292 31.263 10.2611 30.9946L10.1569 30.8901C7.84851 28.6677 4.97421 25.9082 4.97421 21.5976C4.97421 16.9289 8.25062 13.9457 10.6483 11.768L10.7824 11.6487C11.1845 11.2907 11.5568 10.9327 11.8844 10.6195C12.0929 10.4106 12.3014 10.2018 12.5397 9.97808L12.7631 9.75434C12.8823 9.63502 13.0014 9.53061 13.1205 9.41128C15.2651 7.3678 18.1841 4.57853 18.1841 0.5065C18.1841 0.372257 18.3032 0.25293 18.4373 0.25293C18.5713 0.25293 18.6904 0.372257 18.6904 0.5065C18.6904 4.80227 15.6672 7.68104 13.4631 9.78418C13.3439 9.9035 13.2248 10.0079 13.1057 10.1272L12.8823 10.351C12.6589 10.5747 12.4355 10.7835 12.2419 10.9774C11.9142 11.3056 11.527 11.6636 11.1249 12.0365L11.0058 12.1558C8.66761 14.2739 5.49546 17.1675 5.49546 21.6274C5.49546 25.7293 8.2804 28.3992 10.5292 30.562L10.6335 30.6664C10.9164 30.9349 11.1845 31.1885 11.4377 31.442C11.7653 31.7702 12.1525 32.1132 12.6142 32.5458L12.8674 32.7845C15.1906 34.8876 18.7053 38.0796 18.7053 42.6737C18.6755 42.7781 18.5564 42.8974 18.4224 42.8974Z" fill="#2E3131"/>
<path d="M8.92148 27.6978H14.8488C14.9828 27.6978 15.102 27.8171 15.102 27.9513C15.102 28.0856 14.9828 28.2049 14.8488 28.2049H8.92148C8.78745 28.2049 8.6683 28.0856 8.6683 27.9513C8.6683 27.8171 8.78745 27.6978 8.92148 27.6978Z" fill="#2E3131"/>
<path d="M8.92148 15.0349H14.8488C14.9828 15.0349 15.102 15.1542 15.102 15.2885C15.102 15.4227 14.9828 15.5421 14.8488 15.5421H8.92148C8.78745 15.5421 8.6683 15.4227 8.6683 15.2885C8.6683 15.1542 8.78745 15.0349 8.92148 15.0349Z" fill="#2E3131"/>
<path d="M7.93976 24.5361H15.8329C15.9669 24.5361 16.0861 24.6555 16.0861 24.7897C16.0861 24.9239 15.9669 25.0433 15.8329 25.0433H7.93976C7.80573 25.0433 7.68658 24.9239 7.68658 24.7897C7.68658 24.6555 7.79083 24.5361 7.93976 24.5361Z" fill="#2E3131"/>
<path d="M7.93976 18.198H15.8329C15.9669 18.198 16.0861 18.3173 16.0861 18.4516C16.0861 18.5858 15.9669 18.7051 15.8329 18.7051H7.93976C7.80573 18.7051 7.68658 18.5858 7.68658 18.4516C7.68658 18.3173 7.79083 18.198 7.93976 18.198Z" fill="#2E3131"/>
<path d="M6.94016 21.373H16.814C16.9481 21.373 17.0672 21.4924 17.0672 21.6266C17.0672 21.7609 16.9481 21.8802 16.814 21.8802H6.94016C6.80612 21.8802 6.68698 21.7609 6.68698 21.6266C6.68698 21.4924 6.80612 21.373 6.94016 21.373Z" fill="#2E3131"/>
<path d="M16.814 0.76007H6.94016C6.80612 0.76007 6.68698 0.640743 6.68698 0.5065C6.68698 0.372257 6.80612 0.25293 6.94016 0.25293H16.814C16.9481 0.25293 17.0672 0.372257 17.0672 0.5065C17.0672 0.640743 16.963 0.76007 16.814 0.76007Z" fill="#2E3131"/>
<path d="M14.8488 36.5731H8.92148C8.78745 36.5731 8.6683 36.4537 8.6683 36.3195C8.6683 36.1852 8.78745 36.0659 8.92148 36.0659H14.8488C14.9828 36.0659 15.102 36.1852 15.102 36.3195C15.102 36.4537 14.9828 36.5731 14.8488 36.5731Z" fill="#2E3131"/>
<path d="M15.8329 39.7361H7.93976C7.80573 39.7361 7.68658 39.6168 7.68658 39.4826C7.68658 39.3483 7.80573 39.229 7.93976 39.229H15.8329C15.9669 39.229 16.0861 39.3483 16.0861 39.4826C16.0861 39.6168 15.9669 39.7361 15.8329 39.7361Z" fill="#2E3131"/>
<path d="M16.814 42.8978H6.94016C6.80612 42.8978 6.68698 42.7784 6.68698 42.6442C6.68698 42.5099 6.80612 42.3906 6.94016 42.3906H16.814C16.9481 42.3906 17.0672 42.5099 17.0672 42.6442C17.0672 42.7784 16.963 42.8978 16.814 42.8978Z" fill="#2E3131"/>
<path d="M14.8488 7.08331H8.92148C8.78745 7.08331 8.6683 6.96398 8.6683 6.82974C8.6683 6.6955 8.78745 6.57617 8.92148 6.57617H14.8488C14.9828 6.57617 15.102 6.6955 15.102 6.82974C15.102 6.96398 14.9828 7.08331 14.8488 7.08331Z" fill="#2E3131"/>
<path d="M15.8329 3.92023H7.93976C7.80573 3.92023 7.68658 3.8009 7.68658 3.66666C7.68658 3.53241 7.80573 3.41309 7.93976 3.41309H15.8329C15.9669 3.41309 16.0861 3.53241 16.0861 3.66666C16.0861 3.8009 15.9669 3.92023 15.8329 3.92023Z" fill="#2E3131"/>
<path d="M44.8594 18.7921H42.6255L40.466 13.9295H30.4581L28.2838 18.7921H26.1541L34.5387 0.266602H36.4748L44.8594 18.7921ZM35.477 2.71281L31.2772 12.0949H39.6469L35.477 2.71281Z" fill="#2E3131"/>
<path d="M62.4906 0.343994H64.2033L69.237 15.7223L74.4942 0.388742H76.6685L70.1008 18.9292H68.3435L63.3097 3.99838L58.2462 18.9292H56.5186L49.9509 0.388742H52.2146L57.4718 15.7223L62.4906 0.343994Z" fill="#2E3131"/>
<path d="M84.994 2.23738V0H87.3024V2.23738H84.994ZM85.1281 18.794V5.20564H87.1535V18.794H85.1281Z" fill="#2E3131"/>
<path d="M99.2474 6.1601C99.3815 6.51808 99.6347 6.83131 100.007 7.11471C100.379 7.39811 100.886 7.6666 101.526 7.90525C102.166 8.14391 103 8.36765 104.013 8.57647C106.068 9.03886 107.572 9.66533 108.541 10.4708C109.509 11.2762 110 12.3949 110 13.8119C110 14.6025 109.851 15.3184 109.538 15.9747C109.226 16.631 108.794 17.1829 108.258 17.6304C107.707 18.0928 107.051 18.4359 106.277 18.6894C105.502 18.9281 104.668 19.0623 103.76 19.0623C102.286 19.0623 100.945 18.8237 99.724 18.3464C98.5028 17.8691 97.3412 17.1382 96.2391 16.1388L97.5199 14.6174C98.4879 15.4974 99.4559 16.1537 100.439 16.5714C101.422 17.0039 102.554 17.2128 103.82 17.2128C105.056 17.2128 106.053 16.9294 106.798 16.3476C107.543 15.7659 107.915 15.0052 107.915 14.0506C107.915 13.618 107.841 13.2153 107.707 12.8722C107.572 12.5292 107.319 12.2159 106.977 11.9325C106.619 11.6491 106.143 11.3956 105.517 11.1718C104.892 10.9481 104.102 10.7244 103.134 10.5155C102.077 10.2918 101.169 10.0233 100.379 9.72499C99.6049 9.42667 98.9496 9.06869 98.4432 8.65105C97.9369 8.2334 97.5646 7.74118 97.3114 7.17438C97.0731 6.60757 96.9391 5.95127 96.9391 5.17565C96.9391 4.44477 97.088 3.75864 97.3858 3.14709C97.6837 2.53554 98.1007 1.99856 98.6517 1.55109C99.1879 1.10361 99.8283 0.745631 100.573 0.492061C101.303 0.238491 102.107 0.104248 102.986 0.104248C104.326 0.104248 105.502 0.283239 106.515 0.656136C107.528 1.02903 108.496 1.58092 109.449 2.32671L108.243 3.93763C107.379 3.23658 106.53 2.72944 105.651 2.41621C104.788 2.10298 103.879 1.9389 102.941 1.9389C102.345 1.9389 101.809 2.01348 101.332 2.17756C100.856 2.34163 100.439 2.55045 100.096 2.80402C99.7538 3.07251 99.4857 3.38574 99.307 3.75864C99.1283 4.13154 99.024 4.51935 99.024 4.93699C99.0389 5.4143 99.1134 5.80211 99.2474 6.1601Z" fill="#2E3131"/>
<path d="M32.5413 30.7433H31.7669L31.0074 29.0429H27.5076L26.7481 30.7433H26.0034L28.9373 24.2549H29.6224L32.5413 30.7433ZM29.2649 25.12L27.7905 28.4015H30.7244L29.2649 25.12Z" fill="#2E3131"/>
<path d="M35.5801 24.9544V24.313H40.5989V24.8052L36.429 30.1153H40.5989V30.7566H35.446V30.2644L39.6011 24.9544H35.5801Z" fill="#2E3131"/>
<path d="M48.6863 24.9708H44.7695V27.1634H48.2693V27.8197H44.7546V30.072H48.731V30.7283H44.0398V24.2847H48.6863V24.9708Z" fill="#2E3131"/>
<path d="M56.5509 30.7432L54.6893 28.2374H52.8575V30.7432H52.1277V24.2996H54.8978C55.2552 24.2996 55.5679 24.3443 55.8509 24.4338C56.1339 24.5233 56.3721 24.6575 56.5806 24.8216C56.7891 24.9857 56.9381 25.1945 57.0423 25.4332C57.1466 25.6718 57.2061 25.9254 57.2061 26.2237C57.2061 26.4922 57.1615 26.7309 57.0721 26.9397C56.9828 27.1485 56.8636 27.3424 56.7147 27.4916C56.5658 27.6407 56.3721 27.775 56.1637 27.8794C55.9552 27.9838 55.7169 28.0584 55.4637 28.1031L57.4444 30.7283H56.5509V30.7432ZM56.0594 25.3138C55.7764 25.0901 55.3594 24.9708 54.8382 24.9708H52.8426V27.596H54.8233C55.0616 27.596 55.285 27.5661 55.4935 27.5065C55.702 27.4468 55.8658 27.3573 56.0147 27.238C56.1637 27.1187 56.2828 26.9844 56.3573 26.8203C56.4466 26.6563 56.4764 26.4624 56.4764 26.2535C56.4913 25.8508 56.3424 25.5376 56.0594 25.3138Z" fill="#2E3131"/>
<path d="M64.2911 24.4189C64.5443 24.4935 64.7677 24.5979 64.9464 24.747C65.1251 24.8813 65.274 25.0603 65.3634 25.2542C65.4676 25.4481 65.5123 25.6718 65.5123 25.9254C65.5123 26.1342 65.4825 26.3281 65.4229 26.4922C65.3634 26.6563 65.2889 26.7905 65.1846 26.9098C65.0804 27.0292 64.9761 27.1336 64.857 27.2231C64.7379 27.3126 64.6187 27.3722 64.4847 27.4319C64.6783 27.4916 64.857 27.5661 65.0208 27.6407C65.1846 27.7302 65.3336 27.8346 65.4527 27.954C65.5719 28.0733 65.6761 28.2224 65.7506 28.4014C65.825 28.5804 65.8548 28.7743 65.8548 28.9831C65.8548 29.2666 65.7953 29.5052 65.691 29.7289C65.5868 29.9527 65.4229 30.1317 65.2144 30.2808C65.0059 30.43 64.7677 30.5493 64.4698 30.6239C64.1868 30.6985 63.8592 30.7432 63.5167 30.7432H60.6573V24.2996H63.3975C63.7401 24.2996 64.0379 24.3443 64.2911 24.4189ZM64.3804 26.88C64.6485 26.6861 64.7974 26.3878 64.7974 26.0149C64.7974 25.6867 64.6783 25.4332 64.4251 25.2393C64.1868 25.0454 63.8294 24.9559 63.3677 24.9559H61.4168V27.1783H63.3082C63.7549 27.1783 64.1124 27.0739 64.3804 26.88ZM64.7379 29.8035C65.0208 29.5947 65.1549 29.3113 65.1549 28.9384C65.1549 28.5804 65.0059 28.3119 64.723 28.118C64.44 27.9241 64.0081 27.8197 63.4422 27.8197H61.4168V30.1018H63.5762C64.0677 30.1018 64.4549 29.9974 64.7379 29.8035Z" fill="#2E3131"/>
<path d="M75.2548 30.7433H74.4804L73.7208 29.0429H70.221L69.4615 30.7433H68.7169L71.6507 24.2549H72.3358L75.2548 30.7433ZM71.9784 25.12L70.504 28.4015H73.4379L71.9784 25.12Z" fill="#2E3131"/>
<path d="M79.2473 24.2996V30.7432H78.5175V24.2996H79.2473Z" fill="#2E3131"/>
<path d="M86.2614 29.5783C86.1571 29.8617 86.0231 30.0854 85.8444 30.2793C85.6657 30.4732 85.4572 30.6075 85.2189 30.697C84.9806 30.7865 84.7125 30.8312 84.4147 30.8312C83.9381 30.8312 83.536 30.7268 83.2084 30.5031C82.8956 30.2943 82.6276 30.0109 82.434 29.6827L82.9552 29.2352C83.1488 29.5335 83.3573 29.7573 83.5807 29.9214C83.8041 30.0705 84.0871 30.16 84.4147 30.16C84.7721 30.16 85.07 30.0258 85.3083 29.7722C85.5465 29.5186 85.6657 29.1308 85.6657 28.6237V24.313H86.3954V28.6237C86.4103 28.9817 86.3656 29.3098 86.2614 29.5783Z" fill="#2E3131"/>
<path d="M95.82 30.7433H95.0456L94.286 29.0429H90.7862L90.0267 30.7433H89.2821L92.2159 24.2549H92.901L95.82 30.7433ZM92.5436 25.12L91.0692 28.4015H94.0031L92.5436 25.12Z" fill="#2E3131"/>
<path d="M103.761 24.2996H104.475V30.7432H103.895L99.7395 25.463V30.7432H99.0395V24.2996H99.7246L103.775 29.4605V24.2996H103.761Z" fill="#2E3131"/>
<path d="M109.002 24.2996V30.7432H108.272V24.2996H109.002Z" fill="#2E3131"/>
<path d="M29.5639 37.3633H30.0703L31.5894 41.9723L33.168 37.3782H33.8233L31.8574 42.9418H31.3362L29.8171 38.4671L28.2981 42.9418H27.7768L25.811 37.3782H26.4811L28.0598 41.9723L29.5639 37.3633Z" fill="#2E3131"/>
<path d="M39.9569 41.2249C39.8229 41.568 39.6293 41.8663 39.3761 42.1348C39.1229 42.4033 38.84 42.6121 38.4826 42.7612C38.14 42.9104 37.7528 42.9999 37.3358 42.9999C36.9188 42.9999 36.5316 42.9253 36.1891 42.7762C35.8465 42.627 35.5487 42.4182 35.2955 42.1497C35.0423 41.8961 34.8636 41.5829 34.7296 41.2398C34.5956 40.8968 34.536 40.5239 34.536 40.151C34.536 39.7631 34.6104 39.4052 34.7445 39.0621C34.8785 38.719 35.0721 38.4207 35.3253 38.1522C35.5785 37.8837 35.8614 37.6749 36.2189 37.5258C36.5614 37.3766 36.9486 37.2871 37.3656 37.2871C37.7826 37.2871 38.1698 37.3617 38.5123 37.5108C38.8549 37.66 39.1527 37.8688 39.391 38.1373C39.6442 38.3909 39.8229 38.7041 39.9569 39.0472C40.091 39.3902 40.1505 39.7631 40.1505 40.136C40.1654 40.5089 40.091 40.8818 39.9569 41.2249ZM39.3463 39.256C39.2421 38.9726 39.0932 38.7339 38.8996 38.5251C38.7059 38.3163 38.4826 38.1522 38.2145 38.0329C37.9464 37.9136 37.6635 37.8539 37.3507 37.8539C37.038 37.8539 36.7401 37.9136 36.4869 38.0329C36.2189 38.1522 35.9955 38.3163 35.8019 38.5251C35.6083 38.7339 35.4593 38.9726 35.3551 39.2411C35.2508 39.5245 35.1913 39.8079 35.1913 40.1211C35.1913 40.4344 35.2508 40.7327 35.3551 41.0161C35.4593 41.2995 35.6083 41.5381 35.8019 41.747C35.9955 41.9558 36.2189 42.1199 36.4869 42.2392C36.755 42.3585 37.038 42.4182 37.3507 42.4182C37.6635 42.4182 37.9613 42.3585 38.2145 42.2392C38.4826 42.1199 38.7059 41.9558 38.8996 41.747C39.0932 41.5381 39.2421 41.2995 39.3463 41.031C39.4506 40.7476 39.5102 40.4642 39.5102 40.136C39.5102 39.8228 39.4655 39.5245 39.3463 39.256Z" fill="#2E3131"/>
<path d="M44.2469 41.3757H44.2171L42.2065 38.4223V42.8822H41.5959V37.3633H42.2214L44.232 40.3763L46.2425 37.3633H46.868V42.8822H46.2425V38.4074L44.2469 41.3757Z" fill="#2E3131"/>
<path d="M52.5263 37.9464H49.1606V39.8258H52.1689V40.3926H49.1606V42.3317H52.5561V42.8985H48.5351V37.3796H52.5263V37.9464Z" fill="#2E3131"/>
<path d="M57.9957 37.3796H58.6063V42.8985H58.1149L54.5555 38.3641V42.8985H53.9449V37.3796H54.5257L57.9957 41.8097V37.3796Z" fill="#2E3131"/>
<path d="M63.4431 37.3796V42.8985H62.8176V37.3796H63.4431Z" fill="#2E3131"/>
<path d="M69.2377 37.3796H69.8483V42.8985H69.3569L65.7975 38.3641V42.8985H65.1869V37.3796H65.7677L69.2377 41.8097V37.3796Z" fill="#2E3131"/>
<path d="M74.5413 39.1086C74.586 39.213 74.6605 39.3174 74.7647 39.392C74.869 39.4815 75.0328 39.5561 75.2264 39.6307C75.42 39.7052 75.6732 39.7649 75.971 39.8246C76.5816 39.9588 77.0433 40.1527 77.3263 40.3914C77.6092 40.63 77.7582 40.9731 77.7582 41.3907C77.7582 41.6294 77.7135 41.8382 77.6241 42.0321C77.5348 42.226 77.4007 42.3901 77.2369 42.5243C77.0731 42.6586 76.8795 42.763 76.6412 42.8376C76.4029 42.9122 76.1646 42.942 75.8817 42.942C75.4349 42.942 75.0328 42.8674 74.6754 42.7332C74.303 42.584 73.9605 42.3752 73.6329 42.0769L74.0201 41.6145C74.303 41.883 74.6009 42.0769 74.8988 42.1962C75.1966 42.3304 75.5243 42.3901 75.9115 42.3901C76.2838 42.3901 76.5816 42.3006 76.805 42.1365C77.0284 41.9575 77.1327 41.7338 77.1327 41.4504C77.1327 41.3162 77.1178 41.1968 77.0731 41.0924C77.0284 40.988 76.954 40.8985 76.8497 40.809C76.7455 40.7195 76.5965 40.6449 76.4178 40.5853C76.2242 40.5107 75.9859 40.451 75.703 40.3914C75.3902 40.3168 75.1073 40.2422 74.8839 40.1527C74.6456 40.0632 74.452 39.9588 74.303 39.8246C74.1541 39.7052 74.035 39.5561 73.9605 39.3771C73.8861 39.1981 73.8563 39.0042 73.8563 38.7805C73.8563 38.5567 73.9009 38.3628 73.9903 38.1689C74.0797 37.9899 74.1988 37.8258 74.3626 37.6916C74.5264 37.5573 74.72 37.4529 74.9434 37.3784C75.1668 37.3038 75.4051 37.259 75.6732 37.259C76.0753 37.259 76.4327 37.3187 76.7306 37.4231C77.0284 37.5275 77.3263 37.7065 77.6092 37.9302L77.2518 38.4076C76.9986 38.1987 76.7306 38.0496 76.4774 37.9452C76.2242 37.8557 75.9412 37.8109 75.6583 37.8109C75.4796 37.8109 75.3158 37.8408 75.1668 37.8855C75.0179 37.9302 74.8988 37.9899 74.7945 38.0794C74.6903 38.154 74.6158 38.2584 74.5562 38.3628C74.4967 38.4672 74.4669 38.5865 74.4669 38.7208C74.4818 38.8849 74.4967 39.0042 74.5413 39.1086Z" fill="#2E3131"/>
<path d="M83.4299 42.4199C83.2809 42.5392 83.1022 42.6436 82.9235 42.7182C82.7448 42.8077 82.5512 42.8674 82.3427 42.9121C82.1342 42.9569 81.9108 42.9867 81.6576 42.9867C81.2555 42.9867 80.8981 42.9121 80.5556 42.763C80.213 42.6138 79.9301 42.4199 79.6769 42.1663C79.4237 41.9128 79.2301 41.6144 79.0961 41.2565C78.962 40.9134 78.8876 40.5405 78.8876 40.1378C78.8876 39.75 78.962 39.3771 79.0961 39.0191C79.2301 38.676 79.4237 38.3628 79.6769 38.1092C79.9301 37.8556 80.213 37.6468 80.5556 37.4977C80.8981 37.3485 81.2704 37.2739 81.6725 37.2739C81.9257 37.2739 82.1491 37.2888 82.3576 37.3336C82.5661 37.3783 82.7448 37.438 82.9235 37.5126C83.1022 37.5872 83.2512 37.6767 83.4001 37.796C83.549 37.9004 83.683 38.0197 83.832 38.154L83.4001 38.6164C83.1618 38.3926 82.9086 38.2136 82.6405 38.0794C82.3725 37.9302 82.0448 37.8706 81.6725 37.8706C81.3747 37.8706 81.0917 37.9302 80.8236 38.0496C80.5705 38.1689 80.3322 38.333 80.1535 38.5269C79.9599 38.7357 79.8109 38.9743 79.7067 39.2428C79.6024 39.5262 79.5429 39.8245 79.5429 40.1378C79.5429 40.4659 79.6024 40.7642 79.7067 41.0327C79.8109 41.3161 79.9599 41.5548 80.1535 41.7636C80.3471 41.9724 80.5705 42.1365 80.8236 42.2558C81.0768 42.3752 81.3598 42.4348 81.6725 42.4348C82.0448 42.4348 82.3725 42.3602 82.6554 42.226C82.9235 42.0918 83.1916 41.8979 83.4596 41.6443L83.8766 42.047C83.7426 42.1663 83.5937 42.3006 83.4299 42.4199Z" fill="#2E3131"/>
<path d="M85.7674 37.3796V42.8985H85.1419V37.3796H85.7674Z" fill="#2E3131"/>
<path d="M91.486 37.9464H88.1202V39.8258H91.1285V40.3926H88.1202V42.3317H91.5158V42.8985H87.4947V37.3796H91.486V37.9464Z" fill="#2E3131"/>
<path d="M96.9539 37.3796H97.5645V42.8985H97.073L93.5137 38.3641V42.8985H92.9031V37.3796H93.4839L96.9539 41.8097V37.3796Z" fill="#2E3131"/>
<path d="M103.504 42.4199C103.355 42.5392 103.177 42.6436 102.998 42.7182C102.819 42.8077 102.626 42.8674 102.417 42.9121C102.209 42.9569 101.985 42.9867 101.732 42.9867C101.33 42.9867 100.972 42.9121 100.63 42.763C100.287 42.6138 100.004 42.4199 99.7513 42.1663C99.4981 41.9128 99.3045 41.6144 99.1704 41.2565C99.0364 40.9134 98.9619 40.5405 98.9619 40.1378C98.9619 39.75 99.0364 39.3771 99.1704 39.0191C99.3045 38.676 99.4981 38.3628 99.7513 38.1092C100.004 37.8556 100.287 37.6468 100.63 37.4977C100.972 37.3485 101.345 37.2739 101.747 37.2739C102 37.2739 102.223 37.2888 102.432 37.3336C102.64 37.3783 102.819 37.438 102.998 37.5126C103.177 37.5872 103.326 37.6767 103.474 37.796C103.623 37.9004 103.757 38.0197 103.906 38.154L103.474 38.6164C103.236 38.3926 102.983 38.2136 102.715 38.0794C102.447 37.9302 102.119 37.8706 101.747 37.8706C101.449 37.8706 101.166 37.9302 100.898 38.0496C100.645 38.1689 100.407 38.333 100.228 38.5269C100.034 38.7357 99.8853 38.9743 99.781 39.2428C99.6768 39.5262 99.6172 39.8245 99.6172 40.1378C99.6172 40.4659 99.6768 40.7642 99.781 41.0327C99.8853 41.3161 100.034 41.5548 100.228 41.7636C100.421 41.9724 100.645 42.1365 100.898 42.2558C101.151 42.3752 101.434 42.4348 101.747 42.4348C102.119 42.4348 102.447 42.3602 102.73 42.226C102.998 42.0918 103.266 41.8979 103.534 41.6443L103.951 42.047C103.817 42.1663 103.668 42.3006 103.504 42.4199Z" fill="#2E3131"/>
<path d="M109.151 37.9464H105.785V39.8258H108.793V40.3926H105.785V42.3317H109.181V42.8985H105.16V37.3796H109.151V37.9464Z" fill="#2E3131"/>
</svg>
