<svg width="60" height="60" viewBox="0 0 60 60" fill="none" xmlns="http://www.w3.org/2000/svg">
<path d="M34.9408 22.5531C34.9408 23.4736 34.1937 24.2198 33.2741 24.2198C32.3545 24.2198 31.6074 23.4736 31.6074 22.5531C31.6074 21.6336 32.3545 20.8865 33.2741 20.8865C34.1937 20.8865 34.9408 21.6336 34.9408 22.5531Z" fill="black"/>
<path d="M28.274 22.5531C28.274 23.4736 27.5269 24.2198 26.6073 24.2198C25.6878 24.2198 24.9407 23.4736 24.9407 22.5531C24.9407 21.6336 25.6878 20.8865 26.6073 20.8865C27.5269 20.8865 28.274 21.6336 28.274 22.5531Z" fill="black"/>
<path d="M29.9407 30.8887C28.9808 30.8887 28.0209 30.6502 27.0679 30.1737C26.6562 29.9679 26.4894 29.4674 26.6953 29.0556C26.9007 28.6442 27.4004 28.477 27.8134 28.6829C29.2449 29.399 30.6364 29.399 32.0679 28.6829C32.4801 28.477 32.9802 28.6442 33.1861 29.0556C33.392 29.4674 33.2252 29.9679 32.8134 30.1737C31.8604 30.6502 30.9005 30.8887 29.9407 30.8887Z" fill="black"/>
<path d="M45.6217 49.0958C45.5794 49.0958 45.5371 49.0934 45.4948 49.0869C45.0399 49.0169 44.7274 48.5921 44.7966 48.138C44.8038 48.09 45.4858 43.3537 43.0225 40.4899C41.7928 39.0608 39.9479 38.313 37.5341 38.2658C34.7761 40.0871 32.5106 41.2207 29.9291 41.2565C29.9113 41.2582 29.8934 41.2573 29.8755 41.2573C29.869 41.2573 29.8641 41.2573 29.8576 41.2573H29.8201C29.8079 41.2573 29.7966 41.2573 29.7851 41.2573C29.7729 41.2573 29.7607 41.2573 29.7485 41.2565C27.1655 41.2207 24.9015 40.0871 22.1436 38.2658C19.7298 38.313 17.8849 39.0608 16.6552 40.4899C14.1919 43.3537 14.8738 48.09 14.8811 48.138C14.9503 48.5921 14.6378 49.0169 14.1829 49.0869C13.7386 49.1537 13.304 48.8453 13.2341 48.3903C13.1998 48.1657 12.4235 42.8629 15.3849 39.4108C16.9873 37.5432 19.3441 36.5967 22.3909 36.5967C22.5553 36.5967 22.7165 36.6455 22.8531 36.7367C25.4809 38.4888 27.57 39.5784 29.8388 39.5907C32.1069 39.5793 34.196 38.4888 36.8246 36.7367C36.9612 36.6455 37.1224 36.5967 37.2867 36.5967C40.3336 36.5967 42.6904 37.5432 44.2928 39.4108C47.2542 42.8629 46.4778 48.1657 46.4436 48.3903C46.3802 48.8021 46.0254 49.0958 45.6217 49.0958Z" fill="black"/>
<path d="M17.7498 17.5946C17.2893 17.5946 16.9165 17.2214 16.9165 16.7612V9.99325C16.9165 9.53308 17.2893 9.15991 17.7498 9.15991C18.2104 9.15991 18.5832 9.53308 18.5832 9.99325V16.7612C18.5832 17.2214 18.2104 17.5946 17.7498 17.5946Z" fill="black"/>
<path d="M16.0604 19.7441C15.8805 19.7441 15.6991 19.6859 15.5461 19.5663C15.1847 19.2819 15.1212 18.7578 15.4061 18.396L17.0947 16.2464C17.3787 15.8854 17.9012 15.8219 18.265 16.1056C18.6263 16.39 18.6897 16.9141 18.4049 17.2759L16.7163 19.4254C16.5519 19.6346 16.3077 19.7441 16.0604 19.7441Z" fill="black"/>
<path d="M17.7498 21.0112C17.2893 21.0112 16.9165 20.638 16.9165 20.1778V16.7611C16.9165 16.3008 17.2893 15.9277 17.7498 15.9277C18.2104 15.9277 18.5832 16.3008 18.5832 16.7611V20.1778C18.5832 20.638 18.2104 21.0112 17.7498 21.0112Z" fill="black"/>
<path d="M16.9344 36.7222C16.6235 36.7222 16.3257 36.548 16.1824 36.2493C15.9945 35.8579 15.8293 35.4592 15.6918 35.0644C13.2097 27.9274 19.2415 19.3873 21.224 16.581L21.3624 16.3848C21.6276 16.0092 22.1476 15.9182 22.5236 16.1838C22.8996 16.4487 22.9899 16.9687 22.7246 17.3452L22.5854 17.5429C20.7251 20.1759 15.0651 28.1894 17.2657 34.5167C17.3829 34.8521 17.5236 35.1922 17.6848 35.5283C17.8841 35.9433 17.7092 36.4414 17.2941 36.64C17.1778 36.6962 17.0549 36.7222 16.9344 36.7222Z" fill="black"/>
<path d="M42.9467 36.7222C42.8263 36.7222 42.7034 36.6962 42.5871 36.64C42.172 36.4414 41.9971 35.9433 42.1964 35.5283C42.3576 35.1922 42.4983 34.8521 42.6156 34.5159C44.8161 28.1894 39.1561 20.1759 37.2957 17.5429L37.1566 17.3452C36.8912 16.9687 36.9816 16.4487 37.3576 16.1838C37.7327 15.9182 38.2544 16.0092 38.5189 16.3848L38.6572 16.581C40.6397 19.3873 46.6716 27.9274 44.1894 35.0637C44.0519 35.4592 43.8867 35.8579 43.6987 36.2493C43.5555 36.548 43.2577 36.7222 42.9467 36.7222Z" fill="black"/>
<path d="M20.5168 23.8566C20.2198 23.8566 19.9324 23.7004 19.7819 23.4229C19.5622 23.0185 19.7062 22.5159 20.1107 22.2966L20.1229 22.2897C23.6002 20.4029 23.6002 20.4029 26.9206 17.022L28.1356 18.1637C24.6468 21.7156 24.5801 21.7676 20.918 23.7546C20.7902 23.8237 20.6527 23.8566 20.5168 23.8566Z" fill="black"/>
<path d="M39.3725 23.8624C39.2382 23.8624 39.1024 23.8303 38.9762 23.7615C38.8248 23.6793 35.227 21.7087 31.7455 18.1638C31.4233 17.8354 31.4282 17.3076 31.757 16.9854C32.0841 16.6627 32.6115 16.6672 32.9354 16.9959C36.2426 20.3643 39.7355 22.2775 39.7705 22.2967C40.175 22.5159 40.3255 23.0218 40.1058 23.4266C39.9552 23.7045 39.6687 23.8624 39.3725 23.8624Z" fill="black"/>
<path d="M29.9405 36.3315C23.9827 36.3315 19.6581 30.8147 19.6581 23.2146C19.6581 22.7544 20.0308 22.3812 20.4914 22.3812C20.9521 22.3812 21.3247 22.7544 21.3247 23.2146C21.3247 29.8495 24.9478 34.6648 29.9405 34.6648C34.6915 34.6648 38.5562 29.7405 38.5562 23.687C38.5562 23.4791 38.5513 23.272 38.5424 23.0665C38.5221 22.6067 38.8777 22.2172 39.3375 22.1965C39.7867 22.1867 40.1862 22.5314 40.2074 22.9916C40.218 23.2223 40.2229 23.4538 40.2229 23.687C40.2229 30.6592 35.6102 36.3315 29.9405 36.3315Z" fill="black"/>
<path d="M17.749 9.80127L22.2824 10.2429L29.8407 10.9846L37.599 10.2263L41.924 9.80127" stroke="black" stroke-width="2" stroke-miterlimit="10" stroke-linecap="round" stroke-linejoin="round"/>
<path d="M22.2823 9.80127V10.2429V16.8679C22.2823 16.8679 27.8823 16.6429 29.9407 19.0596" stroke="black" stroke-width="2" stroke-miterlimit="10" stroke-linecap="round" stroke-linejoin="round"/>
<path d="M37.599 9.80127V10.2263V16.8679C37.599 16.8679 31.999 16.6429 29.9407 19.0596" stroke="black" stroke-width="2" stroke-miterlimit="10" stroke-linecap="round" stroke-linejoin="round"/>
<path d="M41.924 9.80117L29.3157 7.70117L17.749 9.80117" stroke="black" stroke-width="2" stroke-miterlimit="10" stroke-linecap="round" stroke-linejoin="round"/>
</svg>
