<svg width="366" height="302" viewBox="0 0 366 302" fill="none" xmlns="http://www.w3.org/2000/svg">
<path d="M299.756 205.184H286.788L286.74 205.134C284.434 202.685 283.398 199.245 283.967 195.933C284.148 194.863 284.493 193.825 284.991 192.847L288.937 185.132L287.37 157.49C287.341 156.978 287.519 156.49 287.871 156.118C288.223 155.745 288.701 155.54 289.214 155.54H291.639C292.636 155.54 293.448 156.319 293.487 157.314L294.542 184.636L300.005 193.167C300.472 193.896 300.847 194.672 301.12 195.472C302.191 198.579 301.799 201.954 300.044 204.731L300.044 204.732L299.756 205.184Z" fill="#06D7DE"/>
<path d="M298.64 203.272C298.517 203.465 298.304 203.583 298.075 203.583H288.203C288.013 203.583 287.828 203.504 287.702 203.361C286.036 201.466 285.302 198.982 285.593 196.562C285.625 196.296 285.821 196.078 286.079 196.01C288.14 195.467 290.627 195.152 293.305 195.152C295.4 195.152 297.378 195.346 299.127 195.689C299.366 195.736 299.564 195.911 299.633 196.145C300.331 198.515 300.001 201.118 298.64 203.272L298.64 203.272Z" fill="#7174FF"/>
<path d="M364.531 211.02H0.496099C0.222128 211.02 0 210.689 0 210.279C0 209.87 0.222128 209.539 0.496099 209.539H364.531C364.805 209.539 365.027 209.87 365.027 210.279C365.027 210.689 364.805 211.02 364.531 211.02Z" fill="#3F3D56"/>
<path d="M52.6754 85.8271C45.4271 83.6574 40.6713 78.1588 42.0529 73.5462C43.4344 68.9335 50.4294 66.9543 57.6799 69.1257C60.5881 69.9534 63.2558 71.4655 65.4598 73.5355L96.055 83.1164L91.2529 97.378L61.6014 86.4188C58.6215 86.9372 55.5607 86.7343 52.6754 85.8271H52.6754Z" fill="#FFE2D2"/>
<path d="M188.394 89.5744L188.762 114.766C188.762 114.766 157.095 114.345 146.016 115.221C134.936 116.097 65.8763 90.8184 65.8763 90.8184L77.3457 74.5539L153.53 92.9436L188.394 89.5744Z" fill="#F3F3F3"/>
<path d="M54.9294 55.3174H50.2109V119.354H54.9294V55.3174Z" fill="#6366F1"/>
<path d="M71.9658 210.352H44.6727L44.5727 210.246C39.7196 205.092 37.5378 197.853 38.7362 190.882C39.1173 188.631 39.8424 186.447 40.8916 184.389L49.195 168.151L45.8974 109.977C45.8365 108.898 46.2114 107.873 46.9526 107.089C47.6938 106.304 48.698 105.872 49.7792 105.872H54.8821C56.981 105.872 58.6892 107.513 58.7711 109.607L60.9921 167.107L72.4891 185.062C73.4712 186.596 74.2608 188.228 74.8364 189.913C77.09 196.451 76.2645 203.554 72.5714 209.4L72.5707 209.401L71.9658 210.352Z" fill="#2DD4BF"/>
<path d="M69.6181 206.328C69.3591 206.735 68.9098 206.982 68.4269 206.982H47.6516C47.2509 206.982 46.8624 206.817 46.5978 206.516C43.0909 202.527 41.5457 197.3 42.1584 192.205C42.2255 191.647 42.6382 191.188 43.1817 191.045C47.519 189.902 52.7529 189.238 58.3894 189.238C62.7974 189.238 66.9603 189.646 70.6412 190.369C71.1451 190.468 71.5617 190.835 71.7068 191.328C73.1767 196.317 72.4821 201.795 69.6181 206.328V206.328Z" fill="#6366F1"/>
<path d="M168.172 53.9693L172.217 81.6059L139.861 84.9762L141.884 49.2508L168.172 53.9693Z" fill="#FFE2D2"/>
<path d="M137.416 62.2015C149.468 62.2015 159.237 52.4318 159.237 40.3803C159.237 28.3288 149.468 18.5592 137.416 18.5592C125.365 18.5592 115.595 28.3288 115.595 40.3803C115.595 52.4318 125.365 62.2015 137.416 62.2015Z" fill="#FFE2D2"/>
<path d="M69.4334 139.386C63.2616 133.845 55.3175 132.6 51.6903 136.604C48.0632 140.607 50.1266 148.343 56.3014 153.885C58.7367 156.134 61.6902 157.755 64.9147 158.612L91.37 181.753L102.285 168.875L75.0457 147.43C73.8564 144.324 71.9319 141.566 69.4334 139.386V139.386Z" fill="#FFE2D2"/>
<path d="M141.884 78.2356L174.913 73.5171L194.461 88.3465L196.483 169.908L215.357 300.003L89.9807 301.351C89.9807 301.351 99.4176 217.093 104.136 212.374C108.855 207.656 112.225 186.086 112.225 186.086L121.662 93.065L141.884 78.2356Z" fill="#F3F3F3"/>
<path d="M129.413 92.7284C129.413 92.7284 111.888 91.3803 107.843 103.513C103.799 115.647 99.0806 155.416 99.0806 155.416L88.2955 156.765L78.8586 146.654L68.7477 170.92C68.7477 170.92 104.473 210.016 117.954 192.49C131.436 174.964 129.413 92.7284 129.413 92.7284Z" fill="#F3F3F3"/>
<path d="M180.643 155.416C180.643 155.416 163.117 145.979 165.14 131.824C167.162 117.668 179.969 114.298 171.206 98.1206C162.443 81.9431 167.162 63.0693 167.162 63.0693L164.977 59.699C164.977 59.699 147.253 66.4396 141.704 59.699C136.155 52.9583 138.851 46.8917 130.762 45.5436C122.674 44.1955 111.888 30.7142 117.281 21.9513C122.674 13.1885 121.999 7.79599 130.762 6.44786C139.525 5.09973 160.421 -4.33717 163.791 2.40348C167.162 9.14412 178.621 16.5588 176.599 23.2995C174.576 30.0401 174.576 51.6447 174.576 51.6447C174.576 51.6447 203.253 63.0693 199.026 73.5173C194.798 83.9653 187.384 83.9653 194.124 104.187C200.865 124.409 180.643 155.416 180.643 155.416H180.643Z" fill="#1E293B"/>
<path d="M313.673 207.044C312.303 207.067 310.935 206.91 309.58 206.576C308.319 206.224 307.68 205.723 307.68 205.089L307.68 205.078L310.033 175.505L308.848 169.897C308.677 169.087 308.936 168.201 309.427 167.919C309.53 167.86 309.638 167.83 309.746 167.832L317.538 167.966C318.058 167.975 318.475 168.678 318.469 169.536C318.468 169.698 318.452 169.858 318.421 170.011L317.312 175.504L319.665 205.078C319.665 206.632 315.898 207.044 313.673 207.044H313.673Z" fill="#E6E6E6"/>
<path d="M270.115 207.044C268.746 207.067 267.377 206.91 266.023 206.576C264.762 206.224 264.122 205.723 264.122 205.089L264.123 205.078L266.475 175.505L265.291 169.897C265.119 169.087 265.379 168.201 265.869 167.919C265.972 167.86 266.08 167.83 266.189 167.832L273.981 167.966C274.5 167.975 274.917 168.678 274.912 169.536C274.911 169.698 274.895 169.858 274.864 170.011L273.754 175.504L276.107 205.078C276.108 206.632 272.341 207.044 270.115 207.044Z" fill="#E6E6E6"/>
<path d="M334.88 204.504H322.866V184.363H334.88C336.246 184.359 337.35 183.248 337.346 181.882C337.342 180.521 336.24 179.42 334.88 179.416H251.135C249.769 179.42 248.665 180.53 248.669 181.896C248.673 183.257 249.775 184.359 251.135 184.363H261.382V204.504H251.135C249.769 204.508 248.665 205.618 248.669 206.984C248.673 208.345 249.775 209.447 251.135 209.451H334.88C336.246 209.447 337.35 208.336 337.346 206.97C337.342 205.609 336.24 204.508 334.88 204.504H334.88ZM266.329 204.504L271.979 189.456L317.919 184.363V204.504H266.329V204.504Z" fill="#F2F2F2"/>
</svg>
