<svg width="60" height="60" viewBox="0 0 60 60" fill="none" xmlns="http://www.w3.org/2000/svg">
<path d="M34.9408 22.5531C34.9408 23.4735 34.1937 24.2197 33.2741 24.2197C32.3545 24.2197 31.6074 23.4735 31.6074 22.5531C31.6074 21.6335 32.3545 20.8864 33.2741 20.8864C34.1937 20.8864 34.9408 21.6335 34.9408 22.5531Z" fill="black"/>
<path d="M28.2741 22.5531C28.2741 23.4735 27.527 24.2197 26.6074 24.2197C25.6878 24.2197 24.9408 23.4735 24.9408 22.5531C24.9408 21.6335 25.6878 20.8864 26.6074 20.8864C27.527 20.8864 28.2741 21.6335 28.2741 22.5531Z" fill="black"/>
<path d="M29.9407 30.8885C28.9807 30.8885 28.0209 30.65 27.0679 30.1735C26.6562 29.9677 26.4893 29.4672 26.6952 29.0554C26.9007 28.644 27.4003 28.4767 27.8133 28.6827C29.2448 29.3988 30.6364 29.3988 32.0679 28.6827C32.4801 28.4767 32.9802 28.644 33.1861 29.0554C33.392 29.4672 33.2252 29.9677 32.8133 30.1735C31.8604 30.65 30.9005 30.8885 29.9407 30.8885Z" fill="black"/>
<path d="M45.6218 49.0958C45.5794 49.0958 45.5371 49.0934 45.4948 49.0869C45.0399 49.0169 44.7274 48.5921 44.7966 48.138C44.8038 48.09 45.4858 43.3537 43.0225 40.4899C41.7928 39.0608 39.9479 38.313 37.5342 38.2658C34.7762 40.0871 32.5106 41.2207 29.9292 41.2565C29.9113 41.2582 29.8934 41.2573 29.8755 41.2573C29.869 41.2573 29.8641 41.2573 29.8576 41.2573H29.8202C29.8079 41.2573 29.7966 41.2573 29.7852 41.2573C29.7729 41.2573 29.7608 41.2573 29.7485 41.2565C27.1655 41.2207 24.9015 40.0871 22.1436 38.2658C19.7298 38.313 17.8849 39.0608 16.6553 40.4899C14.1919 43.3537 14.8738 48.09 14.8812 48.138C14.9503 48.5921 14.6378 49.0169 14.1829 49.0869C13.7386 49.1537 13.304 48.8453 13.2341 48.3903C13.1998 48.1657 12.4235 42.8629 15.3849 39.4108C16.9873 37.5432 19.3441 36.5967 22.3909 36.5967C22.5553 36.5967 22.7165 36.6455 22.8532 36.7367C25.4809 38.4888 27.57 39.5784 29.8388 39.5907C32.1069 39.5793 34.196 38.4888 36.8246 36.7367C36.9613 36.6455 37.1224 36.5967 37.2868 36.5967C40.3337 36.5967 42.6904 37.5432 44.2928 39.4108C47.2543 42.8629 46.4778 48.1657 46.4437 48.3903C46.3803 48.8021 46.0254 49.0958 45.6218 49.0958Z" fill="black"/>
<path d="M17.7498 17.5944C17.2893 17.5944 16.9165 17.2213 16.9165 16.7611V9.99309C16.9165 9.53293 17.2893 9.15976 17.7498 9.15976C18.2104 9.15976 18.5832 9.53293 18.5832 9.99309V16.7611C18.5832 17.2213 18.2104 17.5944 17.7498 17.5944Z" fill="black"/>
<path d="M16.0604 19.7441C15.8805 19.7441 15.6991 19.6858 15.5461 19.5662C15.1847 19.2818 15.1212 18.7577 15.4061 18.396L17.0947 16.2463C17.3787 15.8854 17.9012 15.8219 18.265 16.1056C18.6263 16.39 18.6897 16.9141 18.4049 17.2758L16.7163 19.4254C16.5519 19.6346 16.3077 19.7441 16.0604 19.7441Z" fill="black"/>
<path d="M17.7498 21.0112C17.2893 21.0112 16.9165 20.638 16.9165 20.1778V16.7611C16.9165 16.3008 17.2893 15.9277 17.7498 15.9277C18.2104 15.9277 18.5832 16.3008 18.5832 16.7611V20.1778C18.5832 20.638 18.2104 21.0112 17.7498 21.0112Z" fill="black"/>
<path d="M16.9344 36.722C16.6235 36.722 16.3257 36.5478 16.1824 36.2492C15.9945 35.8578 15.8293 35.459 15.6918 35.0643C13.2097 27.9273 19.2415 19.3872 21.224 16.5808L21.3624 16.3847C21.6276 16.0091 22.1476 15.918 22.5236 16.1837C22.8996 16.4486 22.9899 16.9686 22.7246 17.345L22.5854 17.5428C20.7251 20.1758 15.0651 28.1893 17.2657 34.5166C17.3829 34.8519 17.5236 35.1921 17.6848 35.5282C17.8841 35.9432 17.7092 36.4413 17.2941 36.6398C17.1778 36.696 17.0549 36.722 16.9344 36.722Z" fill="black"/>
<path d="M42.9467 36.722C42.8263 36.722 42.7034 36.696 42.5871 36.6398C42.172 36.4413 41.9971 35.9432 42.1964 35.5282C42.3576 35.1921 42.4983 34.8519 42.6156 34.5158C44.8161 28.1893 39.1561 20.1758 37.2957 17.5428L37.1566 17.345C36.8912 16.9686 36.9816 16.4486 37.3576 16.1837C37.7327 15.918 38.2544 16.0091 38.5189 16.3847L38.6572 16.5808C40.6397 19.3872 46.6716 27.9273 44.1894 35.0635C44.0519 35.459 43.8867 35.8578 43.6987 36.2492C43.5555 36.5478 43.2577 36.722 42.9467 36.722Z" fill="black"/>
<path d="M20.5168 23.8566C20.2198 23.8566 19.9324 23.7003 19.7819 23.4228C19.5622 23.0184 19.7062 22.5158 20.1107 22.2966L20.1229 22.2897C23.6002 20.4028 23.6002 20.4028 26.9206 17.0219L28.1356 18.1637C24.6468 21.7155 24.5801 21.7676 20.918 23.7545C20.7902 23.8237 20.6527 23.8566 20.5168 23.8566Z" fill="black"/>
<path d="M39.3726 23.8623C39.2383 23.8623 39.1024 23.8302 38.9763 23.7614C38.8248 23.6792 35.2271 21.7086 31.7456 18.1637C31.4233 17.8352 31.4283 17.3075 31.757 16.9852C32.0842 16.6626 32.6115 16.6671 32.9354 16.9958C36.2427 20.3642 39.7355 22.2774 39.7705 22.2966C40.175 22.5158 40.3255 23.0217 40.1058 23.4265C39.9553 23.7044 39.6688 23.8623 39.3726 23.8623Z" fill="black"/>
<path d="M29.9406 36.3314C23.9828 36.3314 19.6582 30.8146 19.6582 23.2145C19.6582 22.7543 20.0309 22.3811 20.4915 22.3811C20.9522 22.3811 21.3248 22.7543 21.3248 23.2145C21.3248 29.8494 24.9479 34.6647 29.9406 34.6647C34.6916 34.6647 38.5563 29.7404 38.5563 23.6869C38.5563 23.479 38.5514 23.2719 38.5425 23.0664C38.5222 22.6066 38.8778 22.2171 39.3376 22.1964C39.7868 22.1866 40.1863 22.5313 40.2075 22.9915C40.2181 23.2222 40.223 23.4537 40.223 23.6869C40.223 30.6591 35.6103 36.3314 29.9406 36.3314Z" fill="black"/>
<path d="M17.749 9.80109L22.2823 10.2428L29.8407 10.9844L37.599 10.2261L41.924 9.80109" stroke="black" stroke-width="2" stroke-miterlimit="10" stroke-linecap="round" stroke-linejoin="round"/>
<path d="M22.2823 9.80109V10.2428V16.8678C22.2823 16.8678 27.8823 16.6428 29.9407 19.0594" stroke="black" stroke-width="2" stroke-miterlimit="10" stroke-linecap="round" stroke-linejoin="round"/>
<path d="M37.599 9.80109V10.2261V16.8678C37.599 16.8678 31.999 16.6428 29.9407 19.0594" stroke="black" stroke-width="2" stroke-miterlimit="10" stroke-linecap="round" stroke-linejoin="round"/>
<path d="M41.924 9.80108L29.3157 7.70108L17.749 9.80108" stroke="black" stroke-width="2" stroke-miterlimit="10" stroke-linecap="round" stroke-linejoin="round"/>
</svg>
