<svg width="60" height="60" viewBox="0 0 60 60" fill="none" xmlns="http://www.w3.org/2000/svg">
<path d="M45.2873 30.1945C45.1718 29.7879 45.0297 29.3894 44.8619 29.0015C42.8583 24.2765 42.3269 24.2993 42.0047 18.3162C41.9778 14.8282 39.3078 11.9303 35.8337 11.6187C35.8337 11.6187 33.667 9.11865 29.167 9.11865C23.8073 9.11865 18.9753 12.0068 17.7428 16.5902C16.4928 21.2427 18.0301 23.1185 16.667 26.6187C16.1487 27.9505 15.5033 29.2407 15.0062 30.5592" stroke="black" stroke-width="2" stroke-linecap="round" stroke-linejoin="round"/>
<path d="M35.0003 24.952C35.0003 25.8725 34.2541 26.6186 33.3336 26.6186C32.4131 26.6186 31.6669 25.8725 31.6669 24.952C31.6669 24.0315 32.4131 23.2853 33.3336 23.2853C34.2541 23.2853 35.0003 24.0315 35.0003 24.952Z" fill="black"/>
<path d="M28.3336 24.952C28.3336 25.8725 27.5874 26.6186 26.6669 26.6186C25.7464 26.6186 25.0003 25.8725 25.0003 24.952C25.0003 24.0315 25.7464 23.2853 26.6669 23.2853C27.5874 23.2853 28.3336 24.0315 28.3336 24.952Z" fill="black"/>
<path d="M20.8336 25.7853C20.8336 32.452 25.0003 37.452 30.0003 37.452C35.0003 37.452 39.1669 32.452 39.1669 25.7853C39.1669 21.6186 37.5003 19.1186 34.1669 15.7853C30.8336 19.1186 20.8336 23.2853 20.8336 24.952V25.7853V25.7853Z" stroke="black" stroke-width="2" stroke-linejoin="round"/>
<path d="M27.5003 31.827C29.0628 32.6603 30.9378 32.6603 32.5003 31.827" stroke="black" stroke-width="2" stroke-linecap="round" stroke-linejoin="round"/>
<path d="M31.4941 42.874C32.3532 40.794 33.5497 38.8701 35.0353 37.1797C36.6878 35.3221 37.4548 35.3047 49.0911 28.6396C50.9449 27.5777 52.479 26.7058 53.5146 26.1186C53.3176 27.0158 53.0322 28.3561 52.7177 30" stroke="black" stroke-width="2" stroke-linecap="round" stroke-linejoin="round"/>
<path d="M49.2744 48.9627C49.3554 48.8062 49.9093 47.7031 50.0304 47.396C50.4325 46.4074 50.7024 45.3709 50.8338 44.3133" stroke="black" stroke-width="2" stroke-linecap="round" stroke-linejoin="round"/>
<path d="M10.8463 48.9626C10.7652 48.8061 10.2113 47.7031 10.0903 47.396C8.76767 44.0418 9.55109 41.6148 7.57784 30.9298C7.19559 28.86 6.839 27.1798 6.606 26.1185C7.64167 26.7057 9.17575 27.5776 11.0296 28.6396C22.6658 35.3046 23.4328 35.3221 25.0853 37.1796C26.5247 38.8156 27.6923 40.672 28.5436 42.6779" stroke="black" stroke-width="2" stroke-linecap="round" stroke-linejoin="round"/>
<path d="M49.5284 39.785L42.5043 51.5687" stroke="black" stroke-width="2" stroke-linecap="round" stroke-linejoin="round"/>
<path d="M51.6257 41.8025L49.8332 38.7617L46.3123 38.515L48.6498 35.8708L47.7965 32.4458L51.034 33.8517L54.0273 31.9817L53.6907 35.495L56.394 37.7642L52.949 38.53L51.6257 41.8025Z" stroke="black" stroke-width="2" stroke-linecap="round" stroke-linejoin="round"/>
<path d="M14.2303 50.0569V47.5569C14.2303 43.3952 18.4034 40.0569 22.5636 40.0569C27.5636 44.2236 32.5636 44.2236 37.5636 40.0569C40.1993 40.0929 42.6681 41.2975 44.3178 43.3194" stroke="black" stroke-width="2" stroke-linecap="round" stroke-linejoin="round"/>
<path d="M20.3417 40.536C20.3417 40.536 20.9546 41.511 20.9143 45.2584C20.9021 46.3857 20.7483 48.3767 20.5833 50" stroke="black" stroke-width="2" stroke-linecap="round" stroke-linejoin="round"/>
<path d="M39.659 40.3372C39.659 40.3372 39.0405 41.511 39.0808 45.2584C39.093 46.3857 39.2468 48.3767 39.4118 50" stroke="black" stroke-width="2" stroke-linecap="round" stroke-linejoin="round"/>
</svg>
