<svg width="60" height="60" viewBox="0 0 60 60" fill="none" xmlns="http://www.w3.org/2000/svg">
<path d="M27.5217 45.7431V47.2175" stroke="black" stroke-width="2" stroke-miterlimit="10" stroke-linecap="round" stroke-linejoin="round"/>
<path d="M34.9097 22.5604C34.9097 23.4809 34.1627 24.2271 33.2431 24.2271C32.3235 24.2271 31.5764 23.4809 31.5764 22.5604C31.5764 21.6409 32.3235 20.8938 33.2431 20.8938C34.1627 20.8938 34.9097 21.6409 34.9097 22.5604Z" fill="black"/>
<path d="M28.2431 22.5604C28.2431 23.4809 27.496 24.2271 26.5764 24.2271C25.6568 24.2271 24.9098 23.4809 24.9098 22.5604C24.9098 21.6409 25.6568 20.8938 26.5764 20.8938C27.496 20.8938 28.2431 21.6409 28.2431 22.5604Z" fill="black"/>
<path d="M29.9096 30.8958C28.9498 30.8958 27.9898 30.6573 27.0369 30.1808C26.6251 29.9749 26.4583 29.4744 26.6642 29.0627C26.8697 28.6513 27.3693 28.484 27.7823 28.6899C29.2138 29.4061 30.6054 29.4061 32.0369 28.6899C32.4491 28.484 32.9492 28.6513 33.1551 29.0627C33.3609 29.4744 33.1941 29.9749 32.7823 30.1808C31.8293 30.6573 30.8695 30.8958 29.9096 30.8958Z" fill="black"/>
<path d="M39.311 24.8856C38.8332 30.8493 34.8064 35.5054 29.9096 35.5054C24.6912 35.5054 20.4608 30.2174 20.4608 23.6944V22.6502" stroke="black" stroke-width="2" stroke-miterlimit="10" stroke-linecap="round" stroke-linejoin="round"/>
<path d="M14.0263 48.271C14.0263 48.271 12.3597 37.4377 22.3597 37.4377C25.0196 39.211 27.2983 40.4364 29.8597 40.4312H29.7555C32.3168 40.4364 34.5956 39.211 37.2555 37.4377C38.8201 37.4377 40.0991 37.7029 41.1435 38.1503" stroke="black" stroke-width="2" stroke-miterlimit="10" stroke-linecap="round" stroke-linejoin="round"/>
<path d="M48.5916 35.8923H47.6088V41.2909L50.8306 48.6564C50.8306 48.6564 51.0873 49.8068 50.1699 49.8068C49.7229 49.8068 41.9631 49.8164 41.5161 49.8164C40.5987 49.8164 40.8554 48.6661 40.8554 48.6661L44.0772 41.3089V35.8923H43.1727" stroke="black" stroke-width="2" stroke-miterlimit="10" stroke-linecap="round" stroke-linejoin="round"/>
<path d="M44.0772 35.8923H47.6088" stroke="black" stroke-width="2" stroke-miterlimit="10" stroke-linecap="round" stroke-linejoin="round"/>
<path d="M26.8997 18.6543C30.4673 17.2854 32.4399 15.347 32.4399 15.347C32.4399 15.347 35.6329 18.6248 38.9646 20.4182" stroke="black" stroke-width="2" stroke-miterlimit="10" stroke-linecap="round" stroke-linejoin="round"/>
<path d="M17.2615 35.6043C16.108 28.2192 16.9319 20.5619 16.9319 20.5619C16.9319 20.5619 17.5616 12.4448 23.4657 8.56342C29.3698 4.68201 33.5386 9.90167 33.5386 9.90167C33.5386 9.90167 36.2972 8.24351 38.5803 10.3155C40.4229 11.9877 42.0089 15.7365 42.595 20.5619C42.9554 23.5298 43.0596 28.6485 42.8038 32.9364" stroke="black" stroke-width="2" stroke-miterlimit="10" stroke-linecap="round" stroke-linejoin="round"/>
<path d="M21.948 37.4377C21.948 37.4377 25.9739 43.3551 31.1648 43.8628V48.271" stroke="black" stroke-width="2" stroke-miterlimit="10" stroke-linecap="round" stroke-linejoin="round"/>
<path d="M27.5217 46.7785V48.253" stroke="black" stroke-width="2" stroke-miterlimit="10" stroke-linecap="round" stroke-linejoin="round"/>
<path d="M19.2686 20.8938C19.2686 20.8938 29.8543 15.0412 41.1433 21.5623L37.9074 26.5835C37.9074 26.5835 32.3162 27.3603 30.2059 25.2502C28.0466 27.4095 23.1307 26.5835 23.1307 26.5835L19.2686 20.8938Z" stroke="black" stroke-width="2" stroke-miterlimit="10" stroke-linecap="round" stroke-linejoin="round"/>
</svg>
